<!DOCTYPE svg PUBLIC "-//W3C//DTD SVG 1.1//EN" "http://www.w3.org/Graphics/SVG/1.1/DTD/svg11.dtd">

<!-- Uploaded to: SVG Repo, www.svgrepo.com, Transformed by: SVG Repo Mixer Tools -->
<svg fill="#054a84" version="1.1" id="Layer_1" xmlns="http://www.w3.org/2000/svg" xmlns:xlink="http://www.w3.org/1999/xlink" viewBox="0 0 496 496" xml:space="preserve" width="800px" height="800px">

<g id="SVGRepo_bgCarrier" stroke-width="0"/>

<g id="SVGRepo_tracerCarrier" stroke-linecap="round" stroke-linejoin="round"/>

<g id="SVGRepo_iconCarrier"> <g> <g> <g> <path d="M472,32h-72V0H100.688L0,100.688V496h400V192h72c13.232,0,24-10.768,24-24V56C496,42.768,485.232,32,472,32z M96,27.312 V96H27.312L96,27.312z M384,480H16V112h96V16h272v16H184c-13.232,0-24,10.768-24,24v112c0,13.232,10.768,24,24,24h200V480z M480,168c0,4.408-3.584,8-8,8H184c-4.416,0-8-3.592-8-8V56c0-4.408,3.584-8,8-8h288c4.416,0,8,3.592,8,8V168z"/> <path d="M436,64h-52v48v8v40h16v-40h36c15.44,0,28-12.56,28-28S451.44,64,436,64z M436,104h-36V80h36c6.616,0,12,5.384,12,12 C448,98.616,442.616,104,436,104z"/> <path d="M328,80c13.232,0,24,10.768,24,24h16c0-22.056-17.944-40-40-40c-22.056,0-40,17.944-40,40v16c0,22.056,17.944,40,40,40 c9.04,0,17.296-3.128,24-8.208V160h16v-40h-16h-16v16h9.76c-4.392,4.872-10.696,8-17.76,8c-13.232,0-24-10.768-24-24v-16 C304,90.768,314.768,80,328,80z"/> <path d="M64,232v208c0,13.232,10.768,24,24,24h112c13.232,0,24-10.768,24-24v-9.448c5.216,0.88,10.536,1.448,16,1.448 c52.936,0,96-43.064,96-96c0-52.936-43.064-96-96-96c-5.464,0-10.784,0.568-16,1.448V232c0-13.232-10.768-24-24-24H88 C74.768,208,64,218.768,64,232z M80,256h107.048C161.136,273.208,144,302.632,144,336c0,24.6,9.376,46.992,24.648,64H80V256z M208,440c0,4.408-3.584,8-8,8H88c-4.416,0-8-3.592-8-8v-24h107.048c6.472,4.296,13.512,7.76,20.952,10.4V440z M240,256 c44.112,0,80,35.888,80,80s-35.888,80-80,80s-80-35.888-80-80S195.888,256,240,256z M208,232v8H80v-8c0-4.408,3.584-8,8-8h112 C204.416,224,208,227.592,208,232z"/> <rect x="32" y="128" width="16" height="16"/> <rect x="64" y="128" width="16" height="16"/> <rect x="32" y="160" width="16" height="16"/> <path d="M200,273.872v124.256L303.544,336L200,273.872z M216,302.128L272.456,336L216,369.872V302.128z"/> <path d="M244,64h-24c-15.44,0-28,12.56-28,28v4h16v-4c0-6.616,5.384-12,12-12h24c6.616,0,12,5.384,12,12c0,6.616-5.384,12-12,12 h-20v16h20c6.616,0,12,5.384,12,12c0,6.616-5.384,12-12,12h-24c-6.616,0-12-5.384-12-12v-4h-16v4c0,15.44,12.56,28,28,28h24 c15.44,0,28-12.56,28-28c0-7.832-3.224-14.912-8.424-20c5.2-5.088,8.424-12.168,8.424-20C272,76.56,259.44,64,244,64z"/> <rect x="312" y="440" width="16" height="16"/> <rect x="280" y="440" width="16" height="16"/> <rect x="248" y="440" width="16" height="16"/> </g> </g> </g> </g>

</svg>