<!DOCTYPE svg PUBLIC "-//W3C//DTD SVG 1.1//EN" "http://www.w3.org/Graphics/SVG/1.1/DTD/svg11.dtd">

<!-- Uploaded to: SVG Repo, www.svgrepo.com, Transformed by: SVG Repo Mixer Tools -->
<svg fill="#054a84" width="800px" height="800px" viewBox="0 0 16 16" xmlns="http://www.w3.org/2000/svg">

<g id="SVGRepo_bgCarrier" stroke-width="0"/>

<g id="SVGRepo_tracerCarrier" stroke-linecap="round" stroke-linejoin="round"/>

<g id="SVGRepo_iconCarrier"> <path d="M4 10.171V0h12v6H6v7c0 1.657-1.347 3-3 3-1.657 0-3-1.347-3-3a3.002 3.002 0 0 1 4-2.829zM4 12H2v2h2v-2zM6 2v2h8V2H6zm8 6.171V6h2v5c0 1.657-1.347 3-3 3-1.657 0-3-1.347-3-3a3.002 3.002 0 0 1 4-2.829zM14 10h-2v2h2v-2z" fill-rule="evenodd"/> </g>

</svg>