<!DOCTYPE svg PUBLIC "-//W3C//DTD SVG 1.1//EN" "http://www.w3.org/Graphics/SVG/1.1/DTD/svg11.dtd">

<!-- Uploaded to: SVG Repo, www.svgrepo.com, Transformed by: SVG Repo Mixer Tools -->
<svg fill="#054a84" height="800px" width="800px" version="1.1" id="Capa_1" xmlns="http://www.w3.org/2000/svg" xmlns:xlink="http://www.w3.org/1999/xlink" viewBox="0 0 60 60" xml:space="preserve">

<g id="SVGRepo_bgCarrier" stroke-width="0"/>

<g id="SVGRepo_tracerCarrier" stroke-linecap="round" stroke-linejoin="round"/>

<g id="SVGRepo_iconCarrier"> <g> <polygon points="0,27.536 0,58.661 20.354,43.005 "/> <polygon points="22.34,44 1.54,60 58.46,60 37.66,44 "/> <path d="M7.902,31.002L21.649,42h16.701l13.747-10.998l6.992-5.286L54,20.978V0H6v20.978l-5.09,4.738L7.902,31.002z M8,2h44v17.116 v9.403L37.649,40H22.351L8,28.52v-9.403V2z"/> <polygon points="39.646,43.005 60,58.661 60,27.536 "/> <path d="M27,8h6c0.553,0,1-0.447,1-1s-0.447-1-1-1h-6c-0.553,0-1,0.447-1,1S26.447,8,27,8z"/> <path d="M42,22h-6c-0.553,0-1,0.447-1,1s0.447,1,1,1h6c0.553,0,1-0.447,1-1S42.553,22,42,22z"/> <path d="M18,16h5c0.553,0,1-0.447,1-1s-0.447-1-1-1h-5c-0.553,0-1,0.447-1,1S17.447,16,18,16z"/> <path d="M30,15c0,0.553,0.447,1,1,1h7c0.553,0,1-0.447,1-1s-0.447-1-1-1h-7C30.447,14,30,14.447,30,15z"/> <path d="M27,16c0.26,0,0.52-0.11,0.71-0.29C27.899,15.52,28,15.26,28,15s-0.11-0.521-0.29-0.71c-0.38-0.37-1.05-0.37-1.42,0 C26.109,14.479,26,14.729,26,15c0,0.27,0.109,0.52,0.29,0.71C26.479,15.89,26.74,16,27,16z"/> <path d="M33,23c0-0.553-0.447-1-1-1H22c-0.553,0-1,0.447-1,1s0.447,1,1,1h10C32.553,24,33,23.553,33,23z"/> <path d="M18,24c0.26,0,0.52-0.11,0.71-0.29C18.89,23.52,19,23.26,19,23s-0.11-0.521-0.29-0.71c-0.38-0.37-1.04-0.37-1.42,0 C17.1,22.479,17,22.74,17,23s0.109,0.52,0.29,0.71C17.479,23.89,17.74,24,18,24z"/> <path d="M42,16c0.26,0,0.52-0.11,0.71-0.29C42.89,15.52,43,15.26,43,15s-0.11-0.521-0.29-0.71c-0.37-0.37-1.05-0.37-1.42,0 C41.109,14.479,41,14.729,41,15c0,0.26,0.109,0.52,0.29,0.71C41.479,15.89,41.74,16,42,16z"/> <path d="M18,32h5c0.553,0,1-0.447,1-1s-0.447-1-1-1h-5c-0.553,0-1,0.447-1,1S17.447,32,18,32z"/> <path d="M38,30h-7c-0.553,0-1,0.447-1,1s0.447,1,1,1h7c0.553,0,1-0.447,1-1S38.553,30,38,30z"/> <path d="M26.29,30.29C26.109,30.479,26,30.74,26,31s0.109,0.52,0.29,0.71C26.479,31.89,26.729,32,27,32c0.27,0,0.52-0.11,0.71-0.29 C27.89,31.52,28,31.26,28,31c0-0.271-0.11-0.521-0.29-0.71C27.34,29.92,26.66,29.92,26.29,30.29z"/> <path d="M41.29,30.29C41.109,30.479,41,30.74,41,31s0.109,0.52,0.29,0.71C41.479,31.89,41.729,32,42,32c0.27,0,0.52-0.11,0.71-0.29 C42.89,31.52,43,31.26,43,31c0-0.271-0.11-0.521-0.29-0.71C42.34,29.92,41.66,29.92,41.29,30.29z"/> </g> </g>

</svg>