<!DOCTYPE svg PUBLIC "-//W3C//DTD SVG 1.1//EN" "http://www.w3.org/Graphics/SVG/1.1/DTD/svg11.dtd">

<!-- Uploaded to: SVG Repo, www.svgrepo.com, Transformed by: SVG Repo Mixer Tools -->
<svg fill="#054a84" height="800px" width="800px" version="1.1" id="Layer_1" xmlns="http://www.w3.org/2000/svg" xmlns:xlink="http://www.w3.org/1999/xlink" viewBox="0 0 512 512" xml:space="preserve">

<g id="SVGRepo_bgCarrier" stroke-width="0"/>

<g id="SVGRepo_tracerCarrier" stroke-linecap="round" stroke-linejoin="round"/>

<g id="SVGRepo_iconCarrier"> <g> <g> <path d="M466.896,87.86L381.384,2.348C379.882,0.844,377.842,0,375.716,0H119.182c-13.851,0-25.119,11.268-25.119,25.119v291.273 H67.875c-13.851,0-25.119,11.268-25.119,25.119v85.511c0,13.851,11.268,25.119,25.119,25.119h26.188v34.739 c0,13.851,11.268,25.119,25.119,25.119h324.944c13.851,0,25.119-11.268,25.119-25.119V93.528 C469.244,91.402,468.4,89.363,466.896,87.86z M383.733,27.37l58.141,58.141h-49.056c-5.01,0-9.086-4.076-9.086-9.086V27.37z M67.875,436.109c-5.01,0-9.086-4.076-9.086-9.086v-85.511c0-5.01,4.076-9.086,9.086-9.086h247.983 c5.01,0,9.086,4.076,9.086,9.086v85.511c0,5.01-4.076,9.086-9.086,9.086H67.875z M453.211,486.881c0,5.01-4.076,9.086-9.086,9.086 H119.182c-5.01,0-9.086-4.076-9.086-9.086v-34.739h205.762c13.851,0,25.119-11.268,25.119-25.119v-85.511 c0-13.851-11.268-25.119-25.119-25.119H110.096V25.119c0-5.01,4.076-9.086,9.086-9.086h248.518v60.393 c0,13.851,11.268,25.119,25.119,25.119h60.393V486.881z"/> </g> </g> <g> <g> <path d="M144.835,350.597h-9.976c-3.115,0-5.947,1.804-7.264,4.626l-12.689,27.189l-12.688-27.188 c-1.317-2.823-4.149-4.627-7.264-4.627h-9.977c-4.427,0-8.017,3.589-8.017,8.017v51.307c0,4.427,3.589,8.017,8.017,8.017 s8.017-3.589,8.017-8.017v-36.549l14.648,31.387c1.317,2.823,4.149,4.627,7.264,4.627s5.947-1.804,7.264-4.626l14.648-31.388 v36.549c0,4.427,3.589,8.017,8.017,8.017s8.017-3.589,8.017-8.017v-51.307C152.852,354.186,149.262,350.597,144.835,350.597z"/> </g> </g> <g> <g> <path d="M227.464,404.252l-22.171-22.171l21.509-17.208c3.457-2.765,4.018-7.81,1.252-11.268 c-2.766-3.458-7.811-4.019-11.268-1.252l-29.729,23.786v-17.526c0-4.427-3.589-8.017-8.017-8.017s-8.017,3.589-8.017,8.017v51.307 c0,4.427,3.589,8.017,8.017,8.017s8.017-3.589,8.017-8.017v-13.25l5.641-4.512l23.43,23.43c1.565,1.565,3.617,2.348,5.668,2.348 s4.103-0.782,5.668-2.348C230.595,412.458,230.595,407.382,227.464,404.252z"/> </g> </g> <g> <g> <path d="M301.292,351.008c-4.199-1.401-8.74,0.87-10.141,5.071l-15.154,45.46c-0.073,0.219-0.277,0.366-0.507,0.366h-4.776 c-0.23,0-0.434-0.146-0.507-0.366l-15.154-45.46c-1.4-4.201-5.942-6.472-10.141-5.071c-4.201,1.4-6.47,5.941-5.071,10.141 l15.154,45.46c2.259,6.776,8.575,11.329,15.718,11.329h4.776c7.142,0,13.458-4.552,15.718-11.329l15.154-45.46 C307.763,356.948,305.493,352.408,301.292,351.008z"/> </g> </g> <g> <g> <path d="M389.35,198.494c-1.858-1.522-4.3-2.13-6.655-1.661l-33.198,6.64c-0.448-9.301-5.98-17.287-13.87-21.243 c8.573-8.441,13.901-20.167,13.901-33.119c0-25.638-20.858-46.497-46.497-46.497c-15.984,0-30.107,8.109-38.48,20.427 c-8.373-12.318-22.496-20.427-38.48-20.427c-25.638,0-46.497,20.858-46.497,46.497c0,12.952,5.328,24.678,13.901,33.118 c-8.234,4.128-13.901,12.645-13.901,22.465V256c0,13.851,11.268,25.119,25.119,25.119h119.716 c13.441,0,24.449-10.612,25.088-23.897l33.198,6.64c0.522,0.105,1.049,0.156,1.572,0.156c1.837,0,3.636-0.632,5.083-1.817 c1.858-1.523,2.934-3.798,2.934-6.2v-51.307C392.284,202.291,391.208,200.017,389.35,198.494z M264.552,175.181 c1.042,1.535,2.183,2.996,3.397,4.393h-6.795C262.368,178.177,263.509,176.716,264.552,175.181z M226.071,118.647 c16.798,0,30.463,13.666,30.463,30.464s-13.666,30.463-30.463,30.463s-30.463-13.666-30.463-30.463 S209.273,118.647,226.071,118.647z M333.495,213.173c0,0.02,0,0.041,0,0.06v34.227c0,0.02,0,0.041,0,0.06v8.479 c0,5.011-4.076,9.087-9.086,9.087H204.693c-5.01,0-9.086-4.076-9.086-9.086v-51.307c0-5.01,4.076-9.086,9.086-9.086h119.716 c5.01,0,9.086,4.076,9.086,9.086V213.173z M303.031,179.574c-16.798,0-30.463-13.666-30.463-30.463s13.666-30.464,30.463-30.464 s30.464,13.666,30.464,30.464S319.829,179.574,303.031,179.574z M376.251,246.222l-26.722-5.344v-21.06l26.722-5.344V246.222z"/> </g> </g> <g> <g> <path d="M303.031,136.818c-6.778,0-12.292,5.514-12.292,12.292c0,6.778,5.514,12.292,12.292,12.292 c6.778,0,12.292-5.514,12.292-12.292C315.324,142.333,309.809,136.818,303.031,136.818z"/> </g> </g> <g> <g> <path d="M226.071,136.818c-6.778,0-12.292,5.514-12.292,12.292c0,6.778,5.514,12.292,12.292,12.292s12.292-5.514,12.292-12.292 C238.363,142.333,232.849,136.818,226.071,136.818z"/> </g> </g> </g>

</svg>