<?xml version="1.0" encoding="utf-8"?>
<!-- Generator: Adobe Illustrator 27.5.0, SVG Export Plug-In . SVG Version: 6.00 Build 0)  -->
<svg version="1.1" xmlns="http://www.w3.org/2000/svg" xmlns:xlink="http://www.w3.org/1999/xlink" x="0px" y="0px"
	 viewBox="0 0 500 499.999" style="enable-background:new 0 0 500 499.999;" xml:space="preserve">
<g id="BACKGROUND">
	<g>
		<g>
			<rect y="-0.001" style="fill-rule:evenodd;clip-rule:evenodd;fill:#FFFFFF;" width="500" height="500"/>
		</g>
	</g>
</g>
<g id="OBJECTS">
	<g>
		<g>
			<g>
				<rect x="94.886" y="72.646" style="fill:#F1F8F9;" width="308.277" height="219.501"/>
				<g>
					<g>
						<rect x="108.788" y="81.426" style="fill:#DBE8F3;" width="133.652" height="201.941"/>
						<rect x="255.61" y="81.426" style="fill:#DBE8F3;" width="133.651" height="201.941"/>
					</g>
					<g>
						<polygon style="fill:#E3F2F8;" points="179.456,81.426 149.963,81.426 242.44,171.075 242.44,144.715 						"/>
						<polygon style="fill:#E3F2F8;" points="108.788,194.098 193.348,283.367 242.44,283.367 242.44,272.251 108.788,134.689 
													"/>
						<polygon style="fill:#E3F2F8;" points="255.61,183.842 358.272,283.367 380.421,283.367 255.61,157.949 						"/>
						<polygon style="fill:#E3F2F8;" points="389.261,139.292 319.291,81.426 275.147,81.426 389.261,178.564 						"/>
					</g>
				</g>
			</g>
			<rect x="94.886" y="63.378" style="fill:#DEBD57;" width="310.228" height="9.268"/>
			<g>
				<g>
					<path style="fill:#A7C7C5;" d="M118.773,60.289c0,0,6.829,252.67,0.976,258.523c-5.854,5.853-11.677-1.301-11.677-1.301
						s-2.439,7.316-10.244,6.341c-7.804-0.975-8.78-4.39-8.78-4.39s-7.346,11.057-12.224,5.204
						c-4.878-5.853,4.878-264.377,4.878-264.377H118.773z"/>
					<line style="fill:none;stroke:#7AA7A1;stroke-miterlimit:10;" x1="91.487" y1="68.743" x2="88.56" y2="314.097"/>
					<line style="fill:none;stroke:#7AA7A1;stroke-miterlimit:10;" x1="106.608" y1="70.694" x2="107.583" y2="313.121"/>
				</g>
				<g>
					<path style="fill:#A7C7C5;" d="M381.228,60.289c0,0-6.829,252.67-0.976,258.523c5.852,5.853,11.677-1.301,11.677-1.301
						s2.44,7.316,10.243,6.341c7.805-0.975,8.78-4.39,8.78-4.39s7.347,11.057,12.225,5.204c4.877-5.853-4.878-264.377-4.878-264.377
						H381.228z"/>
					<line style="fill:none;stroke:#7AA7A1;stroke-miterlimit:10;" x1="408.514" y1="68.743" x2="411.44" y2="314.097"/>
					<line style="fill:none;stroke:#7AA7A1;stroke-miterlimit:10;" x1="393.392" y1="70.694" x2="392.417" y2="313.121"/>
				</g>
			</g>
		</g>
		<g>
			<g>
				<path style="fill:#F5F2F2;" d="M414.651,417.757c10.961,2.74,25.842,8.32,21.374,19.73c-4.469,11.408-61.883,18.105-71.39,3.762
					c-9.887-14.92,7.656-21.084,17.901-22.195C392.781,417.943,403.69,415.017,414.651,417.757z"/>
				<path style="fill:#F5F2F2;" d="M399.109,381.345c-25.902-25.638-63.378-33.997-146.045-37.898
					c-82.667-3.901-155.415,49.045-136.676,80.814c18.737,31.767,137.182,57.924,210.613,38.74
					C401.002,443.667,425.012,406.983,399.109,381.345z"/>
			</g>
			<g>
				<path style="fill:#7091B8;" d="M270.572,263.898c-4.393-8.402-22.462-14.372-33.289-9.336
					c-15.063,7.002-32.58,13.286-46.902,20.693c-25.729,13.306-33.169,16.159-34.813,41.371
					c-1.599,24.535-0.793,77.548,5.481,83.852c6.276,6.302,21.02,14.181,33.527,8.616c24.667-10.976,62.218-57.473,68.464-68.162
					C272.455,324.825,274.965,272.302,270.572,263.898z"/>
				<path style="fill:#4C6B8D;" d="M347.935,339.92l1.128,55.593c0,0-57.729,32.333-64.633,34.919
					c-6.902,2.586-94.3-13.365-100.401-18.752c-8.784-7.761-3.638-70.468-3.638-70.468l99.774-21.339L347.935,339.92z"/>
				<path style="fill:#5A81AC;" d="M371.425,332.466c0,0-1.971,32.573-11.381,39.12c-9.409,6.546-62.092,34.543-79.735,37.269
					c-17.642,2.727-86.375-12.901-92.129-15.367c-5.755-2.466-8.834-2.23-9.454-7.81c-1.135-10.223-1.034-29.656-0.411-42.748
					c0.411-8.632,1.417-14.878,8.221-18.497c19.319-10.276,46.879-16.039,46.879-16.039l140.362,4.979
					C373.776,313.374,374.364,317.19,371.425,332.466z"/>
				<path style="fill:#6985AC;" d="M240.729,202.288c-0.586,23.577-0.543,48.165-1.087,67.768
					c-0.543,19.601-11.533,33.264-6.641,34.944c4.891,1.681,139.254,24.823,139.254,24.823s10.328-70.569,10.328-86.811
					c0-16.243,2.717-50.406-18.481-56.007c-21.197-5.601-42.929-4.881-63.04-6.562C280.953,178.764,241.273,180.446,240.729,202.288
					z"/>
				<g>
					<path style="fill:#93B3C2;" d="M354.077,204.34c0,0-24.211-4.908-47.896-7.32c-23.688-2.414-53.865,0.43-53.865,0.43
						s-7.355-9.886-12.744-8.333c-5.387,1.551,0.698,17.955,0.698,17.955s-8.724,42.822-9.673,58.79
						c-0.949,15.969-1.843,30.997-1.843,30.997s-6.987,8.679-6.388,13.429c0.601,4.753,12.53,2.036,12.53,2.036
						s44.233,13.113,60.942,14.15c16.707,1.037,47.904-2.734,47.904-2.734s4.133,9.683,10.769,6.953
						c6.633-2.732-0.28-15.102-0.28-15.102s6.532-30.704,7.705-50.428c1.171-19.724,1.07-47.699,1.07-47.699
						s11.26-11.243,6.299-16.893C364.346,194.922,354.077,204.34,354.077,204.34z"/>
					<g>
						<path style="fill:none;stroke:#7397B5;stroke-miterlimit:10;" d="M341.9,217.223c0,0-17.321,0.403-23.508,14.877"/>
						<path style="fill:none;stroke:#7397B5;stroke-miterlimit:10;" d="M339.426,292.815c0,0-14.847-9.65-23.509-11.258"/>
						<path style="fill:none;stroke:#7397B5;stroke-miterlimit:10;" d="M339.014,237.73c0,0-11.961-6.835-17.322-3.216"/>
					</g>
				</g>
				<g>
					<g>
						<path style="fill:#43B09C;" d="M210.867,440.332c0,0,14.723-10.037,30.855-12.373c16.132-2.334,21.247,1.012,20.96,4.727
							c-0.286,3.715-33.527,17.482-45.378,17.061C205.453,449.325,205.227,445.237,210.867,440.332z"/>
						<path style="fill:#EBAC88;" d="M261.669,378l-24.334-3c0,0,0.635,32.96-5.002,42.449c-5.636,9.49-18.22,10.193-24.979,16.559
							c-4.589,4.322-4.289,13.185,8.116,12.852c8.722-0.234,16.29-4.574,22.512-6.326c11.97-3.367,17.96-5.086,19.094-11.158
							c1.134-6.074-3.69-12.402-1.497-18.887C257.774,404.002,261.669,378,261.669,378z"/>
						<path style="fill:#43B09C;" d="M216.834,423.502c0,0,11.737-1.625,16.632,6.662c4.894,8.289,2.266,14.219,2.266,14.219
							s-26.064,12.795-33.226,5.143C192.031,438.338,204.741,427.612,216.834,423.502z"/>
					</g>
					<g>
						<path style="fill:#84463B;" d="M320.27,288.531c-3.473-5.078-50.127,11.027-50.127,11.027s-70.702-33.879-84.297-21.507
							c-13.597,12.377-11.283,41.13,13.133,55.599c24.412,14.465,69.986,31.883,82.391,29.582c2.467-0.452,5.389-2.717,8.484-6.026
							C344.046,334.994,323.746,293.609,320.27,288.531z"/>
						<path style="fill:none;stroke:#653034;stroke-miterlimit:10;" d="M232.335,349c0,0,4.167-38.5,14.667-47.5"/>
					</g>
					<path style="fill:#43B09C;" d="M261.393,192.95c-7.78-1.976-20.863,8.794-23.748,21.683
						c-3.624,16.195-6.871,34.214-6.871,34.214l-22.109,24.816c0,0,11.277,14.783,15.043,12.728
						c3.767-2.059,22.27-12.052,32.719-29.659C266.875,239.126,269.172,194.925,261.393,192.95z"/>
					<path style="fill:#43B09C;" d="M323.569,280.647c0.201-7.199,1.028-11.281,3.289-24.498
						c3.143-11.184,5.146-20.957,6.222-27.401c1.074-6.444,1.397-20.452-5.662-27.664c-7.532-7.697-27.625-9.211-38.686-10.119
						c-11.06-0.91-36.139-1.436-43.361,11.064c-5.374,9.298-2.563,69.391-2.563,69.391s-5.904,17.319-5.18,20.953
						c0.722,3.635,5.89,4.276,13.373,5.962c7.482,1.687,15.59,4.599,26.343,5.483c10.753,0.884,25.313-1.049,28.963-1.941
						c3.648-0.891,10.368-3.811,12.639-8.367C320.169,291.057,323.366,287.846,323.569,280.647z"/>
					<g>
						<path style="fill:#EBAC88;" d="M292.202,180.22l7.626,18.999c0,0-6.877,9.124-15.632,11.372
							c-8.758,2.25-14.689-5.086-14.689-5.086l0.417-18.213L292.202,180.22z"/>
						<g>
							<g>
								<path style="fill:#EBAC88;" d="M254.366,151.473c3.286-9.594,16.827-12.566,24.614-10.211
									c11.964,3.622,15.607,18.031,14.434,30.955c-0.645,7.104-2.132,13.883-7.245,18.234
									c-11.108,9.453-21.261,4.309-24.639,0.945c-3.757-3.746-6.623-15.287-7.455-19.427
									C252.863,165.909,251.08,161.07,254.366,151.473z"/>
							</g>
							<path style="fill:#EBAC88;" d="M293.954,161.249c4.188-2.355,8.188,3.394,6.089,9.615c-2.099,6.215-7.271,8.383-9.322,4.744
								C290.595,171.855,289.762,163.605,293.954,161.249z"/>
							<g>
								<path style="fill:#381800;" d="M275.636,171.42c0.318,1.558,1.84,2.564,3.393,2.247c1.559-0.32,2.565-1.84,2.25-3.398
									c-0.319-1.561-1.839-2.562-3.401-2.244C276.322,168.341,275.321,169.86,275.636,171.42z"/>
							</g>
							<g>
								<path style="fill:#381800;" d="M264.889,173.721c0.241,1.573-0.783,3.031-2.294,3.265c-1.51,0.232-2.932-0.853-3.176-2.423
									c-0.237-1.568,0.792-3.034,2.299-3.262C263.225,171.069,264.646,172.151,264.889,173.721z"/>
							</g>
							<path style="fill:#624C27;" d="M291.23,166.376c-0.598,0.338-0.512,4.239-0.17,7.169c0.345,2.933-0.283,4.872-1.272,7.818
								c-0.708,2.117-2.293,3.073-3.753,4.72c-1.459,1.649-4.131,3.581-6.595,4.867c-2.457,1.289-5.535,1.84-8.192,1.864
								c-2.661,0.022-5.689-0.805-8.281-2.642c-4.807-3.41-7.617-18.178-9.287-18.793c0,0,2.339,10.471,3.11,13.239
								c0.767,2.766,3.16,10.222,5.664,12.096c2.504,1.875,6.658,4.312,10.127,4.728c3.47,0.417,11.157-1.492,14.241-4.568
								c3.085-3.075,6.334-7.705,7.029-8.864c0.695-1.158,1.49-7.348,0.758-9.962c-1.254-4.477-0.602-9.489-0.602-9.489
								S291.834,166.035,291.23,166.376z"/>
							<g>
								<g>
									<path style="fill:#624C27;" d="M280.82,164.802c-2.027-0.746-7.602-0.282-7.782,2.706
										c-0.083,1.374,2.089,0.655,2.635,0.303c1.491-0.962,3.198-1.037,4.911-1.262C281.57,166.42,281.807,165.165,280.82,164.802
										L280.82,164.802z"/>
								</g>
							</g>
							<g>
								<g>
									<path style="fill:#624C27;" d="M258.04,171.556c1.302-0.462,2.548-0.975,3.914-1.19c0.694-0.109,1.441,0.186,2.113,0.012
										c0.268-0.069,0.565-0.147,0.807-0.288c0.025-0.014,0.641-0.537,0.343-0.378c0.276-0.147,0.286-0.516,0.094-0.73
										c0.209,0.232-0.059-0.251-0.073-0.279c-0.169-0.314-0.56-0.518-0.863-0.671c-0.75-0.378-1.972-0.275-2.774-0.104
										c-1.631,0.347-3.263,0.88-4.425,2.142C256.611,170.681,257.152,171.871,258.04,171.556L258.04,171.556z"/>
								</g>
							</g>
							<g>
								<path style="fill:#CB6A69;" d="M272.002,182.245c0,0-0.275,0.136-0.779,0.242c-0.253,0.059-0.56,0.094-0.923,0.123
									c-0.355-0.003-0.774,0.016-1.229-0.082c-0.452-0.092-0.967-0.22-1.493-0.54c-0.268-0.164-0.518-0.358-0.78-0.653
									c-0.044-0.055-0.069-0.073-0.13-0.16l-0.183-0.281c-0.098-0.178-0.183-0.357-0.247-0.556
									c-0.275-0.809-0.117-1.661,0.126-2.281c0.242-0.643,0.584-1.151,0.895-1.625c0.323-0.462,0.643-0.894,0.873-1.252
									c0.249-0.45,0.219-0.261,0.263-0.961c0.022-0.482,0.063-0.927,0.073-1.4c0.013-0.46,0.061-0.902,0.083-1.309
									c0.118-1.631,0.348-2.748,0.348-2.748s0.488,1.03,0.92,2.625c0.098,0.4,0.233,0.832,0.315,1.298
									c0.092,0.452,0.191,0.984,0.263,1.514l0.039,0.383l0.02,0.193c0.002,0.153-0.005,0.273-0.023,0.392
									c-0.078,0.463-0.229,0.784-0.369,1.075c-0.287,0.572-0.603,1.017-0.871,1.46c-0.28,0.429-0.511,0.846-0.655,1.197
									c-0.145,0.362-0.158,0.604-0.124,0.771c0.008,0.044,0.029,0.093,0.044,0.137c0.007,0.01,0.011,0.021,0.012,0.036
									c0.006,0.017,0.063,0.091,0.091,0.134c0.049,0.081,0.149,0.213,0.258,0.322c0.227,0.226,0.522,0.46,0.828,0.647
									c0.614,0.386,1.228,0.689,1.657,0.923C271.747,182.107,272.002,182.245,272.002,182.245z"/>
							</g>
							<path style="fill:none;stroke:#CB6A69;stroke-linecap:round;stroke-linejoin:round;stroke-miterlimit:10;" d="
								M270.462,185.891c0,0,4.922,4.085,9.498-3.997"/>
							<g>
								<g>
									<g>
										<path style="fill:#57729A;" d="M262.05,181.594c-3.716,0.871-7.447-1.443-8.317-5.156c-0.871-3.718,1.445-7.45,5.16-8.319
											c3.716-0.87,7.446,1.445,8.315,5.161C268.079,176.994,265.764,180.725,262.05,181.594z M259.336,170.011
											c-2.673,0.626-4.338,3.309-3.712,5.982c0.626,2.671,3.311,4.336,5.982,3.709c2.673-0.625,4.338-3.308,3.712-5.98
											C264.692,171.048,262.01,169.384,259.336,170.011z"/>
									</g>
									<g>
										<path style="fill:#57729A;" d="M280.563,177.259c-3.593,0.841-7.221-1.499-8.09-5.21c-0.87-3.719,1.341-7.425,4.932-8.267
											c3.592-0.84,7.221,1.497,8.091,5.214C286.367,172.71,284.153,176.417,280.563,177.259z M277.849,165.674
											c-2.547,0.597-4.111,3.255-3.483,5.931c0.625,2.671,3.206,4.359,5.756,3.762c2.546-0.595,4.108-3.256,3.482-5.927
											C282.977,166.765,280.395,165.078,277.849,165.674z"/>
									</g>
								</g>
								<path style="fill:none;stroke:#57729A;stroke-width:2;stroke-miterlimit:10;" d="M273.608,170.306
									c-1.403-0.527-2.964-0.692-4.545-0.381c-1.582,0.312-2.963,1.056-4.059,2.077"/>
								
									<line style="fill:none;stroke:#57729A;stroke-width:2;stroke-miterlimit:10;" x1="285.022" y1="168.071" x2="294.582" y2="163.016"/>
							</g>
							<g>
								<path style="fill:#624C27;" d="M252.019,145.784c3.23-3.682,7.458-2.902,7.458-2.902s0.466-3.976,4.879-6.118
									c4.414-2.142,8.206,0.511,8.206,0.511s2.309-3.046,7.05-3.685c4.741-0.639,7.673,1.21,10.88,5.578
									c1.456,1.984,2.441,5.192,2.441,5.192s4.428,0.871,6.164,3.889c2.884,5.024,2.248,13.587,0.162,14.499
									c-2.542,1.111-2.484,1.746-3.091,3.449c-0.983,2.751-2.348,5.371-3.528,5.255c-1.685-0.164-2.657-5.063-2.657-5.063
									s-2.004,0.489-3.819-2.199c-1.814-2.688-1.957-5.429-1.957-5.429s-2.074,1.7-4.931,1.229
									c-2.857-0.471-4.39-2.839-4.39-2.839s-1.201,2.359-4.53,2.164c-3.328-0.196-5.686-1.398-5.686-1.398
									s-1.679,3.357-2.679,4.246c-2.405,2.136-5.336,1.274-5.646,1.802c-0.866,1.473-0.4,7.53-2.536,7.599
									c-2.132,0.071-5.534-3.902-5.207-9.715c0.331-5.813,3.116-8.337,3.116-8.337S248.789,149.465,252.019,145.784z"/>
							</g>
						</g>
					</g>
					<path style="fill:none;stroke:#2F9384;stroke-miterlimit:10;" d="M250.142,208.686c0,0-1.886,16.591-1.637,27.842
						c0.249,11.251-3.453,22.573-4.343,27.379c-0.89,4.806-1.763,9.31-1.763,9.31"/>
					<path style="fill:#84463B;" d="M288.667,306.04c-9.526-6.987-39.688-9.929-46.665,6.46
						c-6.53,15.339-16.149,89.543-16.457,94.771c0,0,1.774,5.792,14.823,8.057c13.046,2.266,20.66-3.785,20.66-3.785
						s3.58-28.032,6.389-34.986c2.804-6.954,11.796-27.61,18.576-41.993C291.83,322.181,298.194,313.027,288.667,306.04z"/>
					<g>
						<path style="fill:#43B09C;" d="M335.465,214.007c2.86,13.379-3.87,50.333-12.816,63.018
							c-7.26,10.293-37.74,20.346-43.311,18.71c-5.57-1.636-15.398-14.891-11.447-17.072c5.183-2.864,34.66-21.344,34.66-21.344
							s2.952-45.135,9.334-52.96C318.269,196.535,332.608,200.629,335.465,214.007z"/>
						<path style="fill:none;stroke:#2F9384;stroke-miterlimit:10;" d="M322.648,277.025c-7.26,10.293-37.74,20.346-43.311,18.71
							c-5.57-1.636-15.398-14.891-11.447-17.072c5.183-2.864,34.66-21.344,34.66-21.344s2.235-34.16,7.019-48.196"/>
						<path style="fill:#EBAC88;" d="M275.098,283.433c-2.488-2.365-14.854-10.917-20.927-9.772
							c-6.071,1.144-11.467-0.677-15.28,4.603c-3.814,5.28-6.629,10.619-3.696,11.792c1.404,0.56,3.433-0.382,4.898-2.464
							c1.767-2.512,4.487-3.988,4.487-3.988s-1.143,2.401-1.922,5.014c-0.778,2.613-1.194,5.434,0.257,6.27
							c1.543,0.888,2.607-0.873,3.953-3.396c1.189-2.232,4.056-5.14,4.056-5.14s-0.98,2.289-1.589,4.692
							c-0.61,2.401-0.853,4.921,0.621,5.383c1.339,0.418,3.581-2.157,4.146-3.575c0.682-1.708,3.325-2.239,3.325-2.239
							s2.626,6.408,9.732,6.826c7.105,0.418,13.366-2.053,12.793-5.09C279.38,289.313,277.587,285.799,275.098,283.433z"/>
						<path style="fill:none;stroke:#CB6A69;stroke-linecap:round;stroke-linejoin:round;stroke-miterlimit:10;" d="
							M248.277,279.814c0,0-4.76,1.648-5.732,9.783"/>
						<path style="fill:none;stroke:#CB6A69;stroke-linecap:round;stroke-linejoin:round;stroke-miterlimit:10;" d="M257.879,281.85
							c-4.045-0.921-6.175,2.84-7.09,4.366c-0.915,1.526-2.644,4.286-1.782,7.07"/>
					</g>
					<g>
						<path style="fill:#C4C5C4;" d="M276.01,297.956l-28.829-4.661c-3.027-10.503-9.853-43.882-11.336-45.536
							c-1.811-2.021-66.954-4.918-69.007-2.468c-2.055,2.445,11.305,51.186,11.305,51.186s95.104,5.166,97.018,5.273
							C277.076,301.854,276.01,297.956,276.01,297.956z"/>
						<path style="fill:#D7D8D7;" d="M206.107,269.88c0.71,3.817-1.498,7.428-4.933,8.067c-3.434,0.636-6.791-1.94-7.5-5.763
							c-0.708-3.817,1.502-7.431,4.934-8.066C202.043,263.483,205.403,266.061,206.107,269.88z"/>
						<line style="fill:none;stroke:#A9A4A9;stroke-miterlimit:10;" x1="231.87" y1="251.551" x2="241.395" y2="293.562"/>
						<line style="fill:none;stroke:#A9A4A9;stroke-miterlimit:10;" x1="179.775" y1="293.126" x2="238.333" y2="296.57"/>
						<path style="fill:#D7D8D7;" d="M247.181,293.295c-3.027-10.503-9.853-43.882-11.336-45.536
							c-0.158-0.177-0.806-0.359-1.84-0.544c0.093,8.208,11.517,49.885,11.517,49.885s31.655,6.456,30.662,1.664
							c-0.994-4.791-0.174-0.809-0.174-0.809L247.181,293.295z"/>
					</g>
					<path style="fill:none;stroke:#653034;stroke-miterlimit:10;" d="M215.002,299c0,0,18.5,6.5,24.5,12"/>
				</g>
				<g>
					<path style="fill:#7091B8;" d="M388.492,303.472c-4.319-7.76-25.779-14.113-36.427-9.465
						c-14.811,6.466-32.199,12.561-46.282,19.399c-25.303,12.288-30.98,40.722-32.832,63.353
						c-1.851,22.633-2.291,50.022,2.642,53.86c6.696,5.207,21.681,9.523,33.979,4.385c24.259-10.137,60.172-29.044,66.314-38.912
						C385.143,381.218,392.813,311.232,388.492,303.472z"/>
					<path style="fill:none;stroke:#5F7E9F;stroke-miterlimit:10;" d="M381.368,308.405c0,0-59.737,23.565-67.411,40.007
						c-7.672,16.442-10.288,81.923-10.288,81.923"/>
				</g>
			</g>
			<g>
				<path style="fill:#B6B3B5;" d="M395.262,370.414c6.109,0.042,29.071,0.93,28.064,5.32c-1.007,4.392-21.065,7.678-31.813,7.116
					c-10.747-0.561-24.42-2.118-22.433-6.993C371.068,370.984,389.154,370.373,395.262,370.414z"/>
				<g>
					<path style="fill:#799C49;" d="M384.323,287.665c0,0,15.317,30.76,14.684,50.442c-0.633,19.681-5.556,47.353-5.556,47.353
						s-7.849-34.045-11.45-50.793C378.398,317.919,384.323,287.665,384.323,287.665z"/>
					<path style="fill:none;stroke:#9CC755;stroke-width:1.5;stroke-miterlimit:10;" d="M385.264,296.308
						c0,0,7.631,63.079,7.857,84.62"/>
				</g>
				<g>
					<path style="fill:#799C49;" d="M431.618,297.935c0.175,0.235-10.241,4.406-18.117,13.731c-7.898,8.908-14.11,19.849-15.5,35
						c-5.188,30.789,8.832,69.489,9.742,68.366c0.134,0.188-1.642-16.118-0.42-30.893c1.364-16.475,2.915-27.849,6.025-37.25
						c2.715-9.682,6.291-18.695,10.196-29.683C427.197,306.155,431.732,297.94,431.618,297.935z"/>
					<path style="fill:none;stroke:#9CC755;stroke-width:1.5;stroke-miterlimit:10;" d="M425.482,305.653
						c0.692-0.305-14.547,9.129-19.848,33.156c-6.295,23.167-5.148,55.428,0.357,69.912"/>
				</g>
				<g>
					<path style="fill:#799C49;" d="M451.669,315.626c0.142,0.225-9.036,0.729-19.847,6.154
						c-10.747,5.09-23.125,15.103-27.979,26.629c-12.498,22.861-4.005,58.744-2.74,58.081c0.107,0.18,1.682-13.006,6.266-24.278
						c5.115-12.572,9.324-21.103,14.841-27.72c5.138-6.932,9.503-18.036,16.255-25.704
						C444.945,321.008,451.792,315.658,451.669,315.626z"/>
					<path style="fill:none;stroke:#9CC755;stroke-width:1.5;stroke-miterlimit:10;" d="M443.142,320.206
						c0.841-0.074-16.617,8.581-27.767,26.125c-12.068,16.633-17.825,42.156-14.85,54.802"/>
				</g>
				<g>
					<path style="fill:#A1C956;" d="M417.982,349.121c-7.285,1.794-16.06,14.888-17.992,22.203
						c-1.933,7.314,0.002,26.166,0.002,26.166s7.739-13.668,13.476-24.251c5.738-10.585,20.401-20.775,20.401-20.775
						S427.361,346.81,417.982,349.121z"/>
					<path style="fill:none;stroke:#C5E360;stroke-width:1.5;stroke-miterlimit:10;" d="M425.692,350.913
						c0,0-6.14,4.326-12.217,11.754c-5.714,6.982-11.382,23.087-12.063,29.103"/>
					<path style="fill:#B0D85E;" d="M429.125,343.268c0,0,9.055-0.492,13.475,7.2c4.421,7.692,4.806,17.987,4.806,17.987
						s-11.645-12.209-19.392-14.137c-7.749-1.926-13.868-3.417-13.868-3.417s3.656-2.416,7.944-4.243
						C424.934,345.447,426.626,343.157,429.125,343.268z"/>
					<path style="fill:none;stroke:#C5E360;stroke-width:1.5;stroke-miterlimit:10;" d="M443.688,360.63
						c0,0-4.98-9.541-9.953-11.444c-3.794-1.453-10.568-2.546-10.568-2.546"/>
				</g>
				<g>
					<path style="fill:#A1C956;" d="M355.538,345.792c0,0,15.931,12.13,23.618,27.628c7.686,15.5,17.924,35.413,17.924,35.413
						s-2.353-31.318-5.77-42.655c-3.418-11.333-14.494-29.993-21.688-30.69C360.362,334.589,355.538,345.792,355.538,345.792z"/>
					<path style="fill:none;stroke:#C5E360;stroke-width:1.5;stroke-miterlimit:10;" d="M362.823,340.768
						c0,0,6.684,5.172,13.994,15.421c6.873,9.637,15.713,34.155,17.676,43.756"/>
					<path style="fill:#B0D85E;" d="M344.722,346.645c5.205-16.276,13.214-17.292,13.214-17.292
						c2.306-0.942,4.392,2.271,7.311,3.377c4.404,1.666,8.35,4.486,8.35,4.486s-5.381,4.302-12.185,9.811
						c-6.804,5.51-21.102,26.605-21.102,26.605S340.427,360.074,344.722,346.645z"/>
					<path style="fill:none;stroke:#C5E360;stroke-width:1.5;stroke-miterlimit:10;" d="M346.044,359.93
						c0,0,4.674-14.897,8.894-19.52c3.219-3.528,9.301-7.383,9.301-7.383"/>
				</g>
				<g>
					<path style="fill:#A1C956;" d="M361.718,304.325c-0.175,0.215,8.123,2.348,16.953,9.994
						c8.841,7.281,18.216,20.075,20.41,33.172c6.979,26.474-7.782,63.131-8.807,62.207c-0.133,0.172,2.36-11.285,1.342-24.198
						c-0.604-13.005-4.72-27.465-8.479-35.458c-3.349-8.261-7.224-20.105-11.905-29.429
						C366.817,311.215,361.597,304.337,361.718,304.325z"/>
					<path style="fill:none;stroke:#C5E360;stroke-width:1.5;stroke-miterlimit:10;" d="M368.624,310.677
						c-0.754-0.225,13.532,12.012,20.312,32.598c7.801,19.78,8.096,47.907,2.91,60.832"/>
				</g>
				<path style="fill:#D1D1CE;" d="M423.326,375.734c0,0-0.515,42.826-2.991,51.933c-2.477,9.108-14.582,9.405-25.333,9.333
					c-10.751-0.072-21.207-1.836-23.333-7.999c-2.126-6.162-2.589-53.144-2.589-53.144c7.797,3.23,17.326,3.295,31.255,3.144
					C414.265,378.852,423.326,375.734,423.326,375.734z"/>
			</g>
		</g>
		<g>
			<g>
				<path style="fill:#89D6DE;" d="M171.196,128.383c0,7.092-5.748,12.841-12.84,12.841c-7.092,0-12.841-5.749-12.841-12.841
					c0-7.092,5.749-12.841,12.841-12.841C165.448,115.543,171.196,121.291,171.196,128.383z"/>
				<polygon style="fill:#FFFFFF;" points="153.979,121.241 166.35,128.383 153.979,135.526 				"/>
			</g>
			<g>
				<path style="fill:#F5F2F2;" d="M229.897,156.297c0,17.147-13.901,31.048-31.047,31.048c-17.148,0-31.049-13.9-31.049-31.048
					c0-17.147,13.901-31.047,31.049-31.047C215.996,125.249,229.897,139.15,229.897,156.297z"/>
				<g>
					<rect x="181.008" y="142.377" style="fill:#43B09C;" width="35.682" height="27.84"/>
					<rect x="184.339" y="145.849" style="fill:#89D6DE;" width="29.02" height="20.897"/>
					<polygon style="fill:#FFFFFF;" points="198.712,160.798 192.689,155.041 184.339,163.1 184.339,166.746 213.359,166.746 
						213.359,161.949 206.471,151.012 					"/>
				</g>
			</g>
			<g>
				<path style="fill:#FFFFFF;" d="M195.244,182.529h-60.423c-2.503,0-4.532,2.028-4.532,4.531v37.933
					c0,2.502,2.028,4.531,4.532,4.531h47.163l10.574,10.574v-10.574h2.686c2.503,0,4.532-2.029,4.532-4.531v-37.933
					C199.776,184.558,197.748,182.529,195.244,182.529z"/>
				<g>
					<rect x="139.689" y="191.76" style="fill:#89D6DE;" width="50.688" height="3.021"/>
					<rect x="139.689" y="204.516" style="fill:#89D6DE;" width="50.688" height="3.022"/>
					<rect x="139.689" y="217.273" style="fill:#89D6DE;" width="50.688" height="3.02"/>
				</g>
			</g>
		</g>
	</g>
</g>
</svg>
