<?xml version="1.0" encoding="utf-8"?>
<!-- Generator: Adobe Illustrator 27.5.0, SVG Export Plug-In . SVG Version: 6.00 Build 0)  -->
<svg version="1.1" xmlns="http://www.w3.org/2000/svg" xmlns:xlink="http://www.w3.org/1999/xlink" x="0px" y="0px"
	 viewBox="0 0 750 500" style="enable-background:new 0 0 750 500;" xml:space="preserve">
<g id="BACKGROUND">
	<rect style="fill:#FFE9FA;" width="750" height="500"/>
	<g>
		<defs>
			<rect id="SVGID_1_" x="0.491" width="750" height="500"/>
		</defs>
		<clipPath id="SVGID_00000148657680036131810270000017342349000838719617_">
			<use xlink:href="#SVGID_1_"  style="overflow:visible;"/>
		</clipPath>
		<g style="clip-path:url(#SVGID_00000148657680036131810270000017342349000838719617_);">
			
				<rect x="-163.776" y="85.205" transform="matrix(0.9273 -0.3744 0.3744 0.9273 -19.2177 104.1668)" style="fill:#FFDEF9;" width="844.555" height="32.685"/>
			
				<rect x="-131.345" y="121.152" transform="matrix(0.9273 -0.3744 0.3744 0.9273 -27.3733 118.3513)" style="fill:#FFDEF9;" width="844.555" height="16.957"/>
		</g>
		<g style="clip-path:url(#SVGID_00000148657680036131810270000017342349000838719617_);">
			
				<rect x="-121.146" y="249.545" transform="matrix(0.9273 -0.3744 0.3744 0.9273 -72.8179 156.9285)" style="fill:#FFDEF9;" width="977.297" height="32.685"/>
			
				<rect x="-85.864" y="284.341" transform="matrix(0.9273 -0.3744 0.3744 0.9273 -80.3353 172.0967)" style="fill:#FFDEF9;" width="977.297" height="16.957"/>
		</g>
		<g style="clip-path:url(#SVGID_00000148657680036131810270000017342349000838719617_);">
			
				<rect x="-37.52" y="375.471" transform="matrix(0.9273 -0.3744 0.3744 0.9273 -113.8819 197.3964)" style="fill:#FFDEF9;" width="977.297" height="32.685"/>
			
				<rect x="-2.238" y="410.268" transform="matrix(0.9273 -0.3744 0.3744 0.9273 -121.3993 212.5645)" style="fill:#FFDEF9;" width="977.297" height="16.957"/>
		</g>
	</g>
	<g>
		<g>
			
				<ellipse transform="matrix(0.7071 -0.7071 0.7071 0.7071 -155.5722 297.4252)" style="fill:#F4CBEC;" cx="281.238" cy="336.505" rx="144.239" ry="144.239"/>
			<circle style="fill:#F4CBEC;" cx="503.077" cy="294.296" r="118.006"/>
			<circle style="fill:#F4CBEC;" cx="355.232" cy="151.83" r="113.052"/>
		</g>
		<g>
			
				<ellipse transform="matrix(0.9263 -0.3768 0.3768 0.9263 -6.8485 201.2637)" style="fill:#F4CBEC;" cx="510.983" cy="118.136" rx="25.361" ry="25.361"/>
			<circle style="fill:#F4CBEC;" cx="197.872" cy="151.83" r="22.353"/>
			<circle style="fill:#F4CBEC;" cx="220.224" cy="105.99" r="8.759"/>
			<path style="fill:#F4CBEC;" d="M144.099,191.222c0,3.921-3.179,7.1-7.1,7.1c-3.921,0-7.1-3.179-7.1-7.1
				c0-3.921,3.179-7.1,7.1-7.1C140.92,184.122,144.099,187.301,144.099,191.222z"/>
			<path style="fill:#F4CBEC;" d="M580.156,148.331c0,3.783-3.067,6.85-6.85,6.85c-3.783,0-6.85-3.067-6.85-6.85
				c0-3.783,3.067-6.85,6.85-6.85C577.089,141.48,580.156,144.547,580.156,148.331z"/>
			<path style="fill:#F4CBEC;" d="M573.306,97.231c0,3.783-3.067,6.85-6.85,6.85s-6.85-3.067-6.85-6.85s3.067-6.85,6.85-6.85
				S573.306,93.448,573.306,97.231z"/>
		</g>
	</g>
	<rect y="383.747" style="fill:#FFFFFF;" width="750" height="116.253"/>
</g>
<g id="OBJECTS">
	<g>
		<path style="opacity:0.2;fill:#935888;" d="M167.188,428.946c0,3.383-20.946,6.126-46.785,6.126
			c-25.838,0-46.785-2.742-46.785-6.126c0-3.383,20.946-6.126,46.785-6.126C146.242,422.82,167.188,425.563,167.188,428.946z"/>
		<g>
			<g>
				<ellipse style="fill:#C2DEB7;" cx="94.818" cy="274.913" rx="19.04" ry="41.529"/>
				
					<line style="fill:none;stroke:#6A8E60;stroke-width:1.0714;stroke-miterlimit:10;" x1="95.353" y1="233.384" x2="95.353" y2="417.913"/>
			</g>
			<g>
				<path style="fill:#AFD3A1;" d="M143.375,282.572c-9.226,9.226-20.135,13.277-24.365,9.047c-4.23-4.23-0.18-15.138,9.047-24.365
					c9.226-9.226,20.135-13.277,24.365-9.047C156.651,262.437,152.601,273.346,143.375,282.572z"/>
				<path style="fill:#86B770;" d="M128.994,316.197c-6.55,0.278-11.964-1.932-12.091-4.935c-0.127-3.003,5.08-5.663,11.63-5.941
					c6.551-0.278,11.964,1.932,12.091,4.935C140.751,313.26,135.544,315.92,128.994,316.197z"/>
				<path style="fill:#86B770;" d="M96.737,279.333c-4.368-4.89-6.091-10.477-3.849-12.48c2.242-2.002,7.6,0.338,11.967,5.228
					c4.368,4.89,6.091,10.477,3.849,12.479C106.462,286.564,101.104,284.223,96.737,279.333z"/>
				<g>
					<path style="fill:none;stroke:#76A867;stroke-width:1.0714;stroke-miterlimit:10;" d="M102.503,391.365
						c-1.234-16.987-2.468-34.051-1.123-51.03c1.345-16.978,5.384-34.002,14.049-48.664c8.665-14.662,22.297-26.809,38.669-31.503"
						/>
					<path style="fill:none;stroke:#76A867;stroke-width:1.0714;stroke-miterlimit:10;" d="M102.793,327.206
						c1.949-6.095,6.213-11.418,11.735-14.65c5.522-3.232,12.252-4.343,18.52-3.057"/>
					<path style="fill:none;stroke:#76A867;stroke-width:1.0714;stroke-miterlimit:10;" d="M111.774,299.202
						c0.346-9.91-4.257-19.871-12.029-26.03"/>
				</g>
			</g>
			<g>
				<path style="fill:#C2DEB7;" d="M59.314,343.481c-12,4.053-23.234,2.879-25.092-2.622c-1.858-5.502,6.363-13.247,18.363-17.301
					s23.234-2.879,25.092,2.622C79.535,331.682,71.314,339.427,59.314,343.481z"/>
				<path style="fill:#C2DEB7;" d="M120.796,337.31c-7.781,2.077-14.861,0.868-15.813-2.699c-0.952-3.567,4.584-8.143,12.365-10.22
					c7.781-2.077,14.861-0.868,15.813,2.699C134.113,330.658,128.577,335.233,120.796,337.31z"/>
				<path style="fill:#98C685;" d="M55.181,303.974c-8.346-6.535-12.682-14.934-9.686-18.76c2.996-3.826,12.19-1.63,20.536,4.905
					c8.345,6.535,12.682,14.934,9.686,18.76C72.72,312.705,63.526,310.509,55.181,303.974z"/>
				<path style="fill:#86B770;" d="M95.706,306.242c4.326-4.927,9.664-7.312,11.923-5.329c2.259,1.983,0.583,7.585-3.743,12.512
					c-4.326,4.927-9.664,7.312-11.923,5.329C89.704,316.77,91.38,311.168,95.706,306.242z"/>
				<g>
					<path style="fill:none;stroke:#487F36;stroke-width:1.0714;stroke-miterlimit:10;" d="M90.847,328.511
						c-0.26-7.437,3.195-14.913,9.027-19.535"/>
					<path style="fill:none;stroke:#487F36;stroke-width:1.0714;stroke-miterlimit:10;" d="M97.595,340.856
						c6.161-7.324,15.901-11.485,25.452-10.872"/>
					<path style="fill:none;stroke:#487F36;stroke-width:1.0714;stroke-miterlimit:10;" d="M56.331,291.854
						c16.927,13.755,31.812,30.339,41.843,49.706c10.031,19.368,15.021,41.641,12.174,63.265"/>
					<path style="fill:none;stroke:#487F36;stroke-width:1.0714;stroke-miterlimit:10;" d="M91.203,328.987
						c-14.994-4.515-31.749-2.848-45.559,4.532"/>
				</g>
			</g>
		</g>
		<g>
			<g>
				<path style="fill:#E2B2AF;" d="M133.1,356.505v30.62l-10.382,36.389c-0.958,3.356-4.025,5.671-7.515,5.671H79.748
					c-3.491,0-6.558-2.315-7.515-5.672l-1.043-3.658l-9.34-32.73v-30.62H133.1z"/>
				<path style="fill:#EFC6C1;" d="M118.38,374.555c0,25.04-20.3,45.34-45.33,45.34c-0.62,0-1.24-0.01-1.86-0.04l-9.34-32.73v-30.62
					h52.79C117.05,362.035,118.38,368.145,118.38,374.555z"/>
			</g>
			<g>
				<g>
					<line style="fill:none;stroke:#FFDAD7;stroke-miterlimit:10;" x1="133.1" y1="387.125" x2="61.85" y2="387.125"/>
					<line style="fill:none;stroke:#FFDAD7;stroke-miterlimit:10;" x1="133.1" y1="380.247" x2="61.85" y2="380.247"/>
				</g>
				<g>
					<line style="fill:none;stroke:#FFDAD7;stroke-miterlimit:10;" x1="133.1" y1="368.026" x2="61.85" y2="368.026"/>
					<line style="fill:none;stroke:#FFDAD7;stroke-miterlimit:10;" x1="133.1" y1="361.148" x2="61.85" y2="361.148"/>
				</g>
			</g>
		</g>
	</g>
	<g>
		<rect x="523.766" y="66.783" style="fill:#FFFFFF;" width="166.851" height="125.925"/>
		<g>
			<defs>
				
					<rect id="SVGID_00000003787574644540924710000017739657237046294193_" x="532.859" y="74.47" width="133.451" height="118.238"/>
			</defs>
			<clipPath id="SVGID_00000101093954408899488610000006364162677452654244_">
				<use xlink:href="#SVGID_00000003787574644540924710000017739657237046294193_"  style="overflow:visible;"/>
			</clipPath>
			<g style="clip-path:url(#SVGID_00000101093954408899488610000006364162677452654244_);">
				<g>
					<circle style="fill:#311C16;" cx="595.702" cy="133.589" r="16.719"/>
					<ellipse style="fill:#311C16;" cx="609.741" cy="108.581" rx="21.782" ry="24.915"/>
					<g>
						<g>
							<g>
								<path style="fill:#9B4F38;" d="M585.83,116.381c0-2.883,2.337-5.22,5.22-5.22s5.22,2.337,5.22,5.22
									c0,2.883-2.337,5.22-5.22,5.22S585.83,119.264,585.83,116.381z"/>
								<g>
									<path style="fill:#661F0C;" d="M588.56,115.358c0.711-0.257,1.513-0.091,2.159,0.279c0.64,0.38,1.179,0.997,1.303,1.744
										c-0.593-0.449-1.091-0.826-1.652-1.147C589.815,115.901,589.242,115.652,588.56,115.358z"/>
									<path style="fill:#661F0C;" d="M591.333,113.057c-1.002,0.503-1.773,1.203-2.245,2.084
										c-0.471,0.881-0.627,1.91-0.493,3.023c-0.668-0.932-0.683-2.295-0.116-3.35
										C589.045,113.759,590.187,113.018,591.333,113.057z"/>
								</g>
							</g>
							<path style="fill:none;stroke:#E986A2;stroke-miterlimit:10;" d="M595.347,124.245c0-2.5-2.026-4.526-4.526-4.526
								c-2.5,0-4.526,2.026-4.526,4.526c0,2.5,2.026,4.526,4.526,4.526C593.321,128.772,595.347,126.745,595.347,124.245z"/>
						</g>
						<g>
							<g>
								<path style="fill:#9B4F38;" d="M633.729,116.381c0-2.883-2.337-5.22-5.22-5.22c-2.883,0-5.22,2.337-5.22,5.22
									c0,2.883,2.337,5.22,5.22,5.22C631.392,121.601,633.729,119.264,633.729,116.381z"/>
								<g>
									<path style="fill:#661F0C;" d="M630.999,115.358c-0.711-0.257-1.513-0.091-2.159,0.279c-0.64,0.38-1.179,0.997-1.303,1.744
										c0.593-0.449,1.091-0.826,1.652-1.147C629.744,115.901,630.317,115.652,630.999,115.358z"/>
									<path style="fill:#661F0C;" d="M628.226,113.057c1.002,0.503,1.773,1.203,2.245,2.084c0.471,0.881,0.627,1.91,0.493,3.023
										c0.668-0.932,0.683-2.295,0.116-3.35C630.513,113.759,629.372,113.018,628.226,113.057z"/>
								</g>
							</g>
							<path style="fill:none;stroke:#E986A2;stroke-miterlimit:10;" d="M624.211,124.245c0-2.5,2.026-4.526,4.526-4.526
								c2.5,0,4.526,2.026,4.526,4.526c0,2.5-2.026,4.526-4.526,4.526C626.238,128.772,624.211,126.745,624.211,124.245z"/>
						</g>
					</g>
					<g>
						
							<rect x="602.068" y="122.543" transform="matrix(-1 -1.224647e-16 1.224647e-16 -1 1219.4819 270.1403)" style="fill:#9B4F38;" width="15.345" height="25.053"/>
						<path style="fill:#661F0C;" d="M609.818,138.907L609.818,138.907c4.237,0,7.673-3.435,7.673-7.673v-8.691h-15.345v8.691
							C602.145,135.471,605.581,138.907,609.818,138.907z"/>
					</g>
					<path style="fill:#9B4F38;" d="M628.357,106.735c0,0.27,0,0.52-0.02,0.78c-0.03,0.78-0.1,1.54-0.22,2.29l-0.25,2.52
						c-0.32,3.25-0.16,6.29-1.33,9.43c-1.68,4.53-6.17,8.95-10.43,11.29c-3.58,1.97-7.81,2.07-11.53,0.38
						c-4.85-2.21-8.79-6.84-11.03-11.67c-1.32-2.84-1.47-6.17-1.74-9.26l-0.11-1.05c-0.15-0.71-0.27-1.44-0.35-2.19
						c-0.09-0.81-0.14-1.66-0.14-2.52c0-0.29,0.01-0.58,0.02-0.86c0.29-6.96,4.14-12.95,9.71-16.07c2.63-1.48,5.63-2.32,8.84-2.32
						c4.11,0,7.9,1.39,10.98,3.72c0.11,0.08,0.21,0.16,0.31,0.24c1.88,1.49,3.47,3.34,4.68,5.46c1.05,1.81,1.81,3.82,2.23,5.96
						c0.05,0.22,0.08,0.43,0.12,0.65C628.266,104.565,628.357,105.635,628.357,106.735z"/>
					<path style="opacity:0.5;fill:#722314;" d="M627.976,102.865c-0.02,0.03-0.04,0.06-0.06,0.08c-1.18,1.39-4.71,0.31-7.87-2.39
						c-1.26-1.09-2.27-2.27-2.96-3.38c-0.77,0.73-1.61,1.44-2.54,2.07c-3.94,2.72-8.34,3.77-11.83,3.16
						c-0.46,0.4-0.94,0.78-1.46,1.14c-3.37,2.33-7.18,3.11-10.03,2.33c0.29-6.96,4.14-12.95,9.71-16.07
						c2.63-1.48,5.63-2.32,8.84-2.32c4.11,0,7.9,1.39,10.98,3.72c0.11,0.08,0.21,0.16,0.31,0.24c-0.21,0.53-0.47,1.07-0.76,1.6
						c1.27,0.49,2.68,1.35,4.03,2.5c0.51,0.44,0.98,0.9,1.41,1.36C627.896,99.225,628.867,101.685,627.976,102.865z"/>
					<g>
						<g>
							<path style="fill:#311C16;" d="M600.714,89.804c-0.262,0.332-0.523,0.65-0.731,0.968c-1.08,1.652-2.059,3.381-2.917,5.171
								c-1.717,3.54-2.984,7.314-3.762,11.193c-0.443,2.178-0.724,4.39-0.845,6.609c-0.033,0.574-0.194,1.307-0.624,1.555
								l-0.295-2.8l-0.107-1.058c-0.322-1.479-0.496-3.049-0.496-4.708C590.937,99.421,594.894,93.06,600.714,89.804z"/>
						</g>
						<g>
							<path style="fill:#311C16;" d="M618.844,89.804c0.261,0.332,0.523,0.65,0.731,0.968c1.08,1.652,2.059,3.381,2.917,5.171
								c1.717,3.54,2.984,7.314,3.762,11.193c0.443,2.178,0.724,4.39,0.845,6.609c0.034,0.574,0.195,1.307,0.624,1.555l0.295-2.8
								l0.107-1.058c0.322-1.479,0.496-3.049,0.496-4.708C628.622,99.421,624.665,93.06,618.844,89.804z"/>
						</g>
					</g>
					<path style="fill:#311C16;" d="M624.332,93.544c-1.347-1.153-2.758-2.006-4.027-2.502c1.878-3.396,2.162-6.972,0.375-9.565
						c-2.98-4.322-10.556-4.267-16.922,0.122c-2.14,1.475-3.858,3.255-5.1,5.128c-1.941,0.324-3.996,1.143-5.913,2.465
						c-5.023,3.463-7.189,9.035-4.837,12.445c2.351,3.41,8.329,3.367,13.352-0.096c0.518-0.357,0.997-0.741,1.453-1.138
						c3.491,0.616,7.895-0.436,11.836-3.153c0.927-0.639,1.767-1.34,2.534-2.076c0.688,1.115,1.698,2.294,2.964,3.377
						c3.163,2.707,6.686,3.78,7.869,2.398C629.099,99.565,627.495,96.25,624.332,93.544z"/>
					<g>
						<g>
							<g>
								<path style="fill:#722314;" d="M606.069,113.479c0,0-0.95-4.04-3.807-4.591c-4.158-0.802-5.968,3.451-5.968,3.451
									s2.186,2.214,4.886,2.337C603.88,114.799,606.069,113.479,606.069,113.479z"/>
								<g>
									<path style="fill:#FEFEFE;" d="M606.066,113.486c0,0-2.179,1.313-4.886,1.19c-2.69-0.117-4.886-2.337-4.886-2.337
										l1.159-0.895c2.399-1.852,5.761-1.45,7.697,0.92L606.066,113.486z"/>
									<path style="fill:none;stroke:#661F0C;stroke-miterlimit:10;" d="M606.239,111.043c-0.476-0.787-1.109-1.447-1.836-1.914"
										/>
									
										<path style="fill:#0A1227;stroke:#0A1227;stroke-width:0.1692;stroke-linecap:round;stroke-linejoin:round;stroke-miterlimit:10;" d="
										M596.586,112.021c0.169-0.152,0.612-0.511,0.779-0.665c0.382-0.307,0.786-0.601,1.237-0.806
										c0.888-0.447,1.904-0.581,2.886-0.486c0.978,0.134,1.942,0.497,2.713,1.138c0.397,0.303,0.727,0.685,1.035,1.073
										c0.277,0.404,0.566,0.797,0.831,1.212c-0.705-0.675-1.303-1.461-2.086-1.958c-0.768-0.523-1.649-0.835-2.548-0.95
										c-0.901-0.097-1.826,0.006-2.686,0.338c-0.869,0.304-1.62,0.934-2.453,1.423L596.586,112.021z"/>
									<g>
										<path style="fill:#0A1227;" d="M594.896,112.24c0.495,0.075,0.931-0.011,1.336-0.208c0.421-0.168,0.789-0.476,1.255-0.686
											c-0.26,0.434-0.633,0.782-1.102,1.021c-0.245,0.095-0.506,0.167-0.772,0.152
											C595.349,112.505,595.081,112.421,594.896,112.24z"/>
									</g>
								</g>
								<circle style="fill:#0A1227;" cx="601.121" cy="112.158" r="1.874"/>
							</g>
							<g>
								<path style="fill:#722314;" d="M613.49,113.479c0,0,0.95-4.04,3.808-4.591c4.158-0.802,5.968,3.451,5.968,3.451
									s-2.186,2.214-4.886,2.337C615.679,114.799,613.49,113.479,613.49,113.479z"/>
								<g>
									<path style="fill:#FEFEFE;" d="M613.493,113.486c0,0,2.179,1.313,4.886,1.19c2.69-0.117,4.886-2.337,4.886-2.337
										l-1.159-0.895c-2.399-1.852-5.761-1.45-7.697,0.92L613.493,113.486z"/>
									<path style="fill:none;stroke:#661F0C;stroke-miterlimit:10;" d="M613.32,111.043c0.476-0.787,1.109-1.447,1.836-1.914"/>
									
										<path style="fill:#0A1227;stroke:#0A1227;stroke-width:0.1692;stroke-linecap:round;stroke-linejoin:round;stroke-miterlimit:10;" d="
										M622.973,112.021c-0.169-0.152-0.612-0.511-0.779-0.665c-0.382-0.307-0.786-0.601-1.237-0.806
										c-0.888-0.447-1.904-0.581-2.886-0.486c-0.977,0.134-1.942,0.497-2.712,1.138c-0.397,0.303-0.727,0.685-1.035,1.073
										c-0.277,0.404-0.566,0.797-0.831,1.212c0.705-0.675,1.303-1.461,2.086-1.958c0.768-0.523,1.649-0.835,2.548-0.95
										c0.901-0.097,1.826,0.006,2.686,0.338c0.869,0.304,1.62,0.934,2.453,1.423L622.973,112.021z"/>
									<g>
										<path style="fill:#0A1227;" d="M624.663,112.24c-0.185,0.181-0.453,0.265-0.716,0.279
											c-0.267,0.015-0.527-0.057-0.772-0.152c-0.469-0.239-0.843-0.586-1.102-1.021c0.466,0.209,0.833,0.518,1.255,0.686
											C623.732,112.229,624.168,112.314,624.663,112.24z"/>
									</g>
								</g>
								<path style="fill:#0A1227;" d="M620.313,112.158c0-1.035-0.839-1.875-1.874-1.875c-1.035,0-1.875,0.839-1.875,1.875
									c0,1.035,0.839,1.874,1.875,1.874C619.473,114.032,620.313,113.193,620.313,112.158z"/>
							</g>
						</g>
						<g>
							<path style="fill:#311C16;" d="M596.798,104.816c-0.391,0.207-0.429,0.698-0.072,0.92c0.574,0.357,1.158,0.587,1.746,0.77
								c0.816,0.241,1.641,0.361,2.474,0.381c0.833,0.019,1.674-0.067,2.525-0.273c0.604-0.155,1.213-0.356,1.83-0.68
								c0.408-0.215,0.449-0.729,0.075-0.959c-0.565-0.349-1.14-0.575-1.718-0.754c-0.816-0.24-1.641-0.361-2.474-0.377
								c-0.833-0.015-1.674,0.071-2.525,0.278C598.045,104.279,597.427,104.484,596.798,104.816z"/>
							<path style="fill:#311C16;" d="M622.76,104.816c0.391,0.207,0.429,0.698,0.072,0.92c-0.574,0.357-1.158,0.587-1.746,0.77
								c-0.816,0.241-1.641,0.361-2.474,0.381c-0.833,0.019-1.674-0.067-2.525-0.273c-0.604-0.155-1.213-0.356-1.83-0.68
								c-0.408-0.215-0.449-0.729-0.075-0.959c0.565-0.349,1.14-0.575,1.718-0.754c0.816-0.24,1.641-0.361,2.474-0.377
								c0.833-0.015,1.675,0.071,2.525,0.278C621.514,104.279,622.132,104.484,622.76,104.816z"/>
						</g>
						<path style="fill:none;stroke:#661F0C;stroke-miterlimit:10;" d="M608.612,129.604c0.755-0.221,1.565-0.252,2.335-0.09"/>
						<g>
							<g>
								<path style="fill:none;stroke:#661F0C;stroke-miterlimit:10;" d="M613.128,117.869c-1.762-1.929-4.409-1.813-6.06,0.266"/>
							</g>
						</g>
						<g>
							<g>
								<g>
									<g>
										<path style="fill:#661F0C;" d="M615.102,124.513c0,0.059-0.115,0.218-0.298,0.449c-2.311,2.928-6.654,3.03-9.448-0.02
											c-0.188-0.206-0.277-0.37-0.277-0.429v-0.04l5.005,0.04H615.102z"/>
									</g>
								</g>
								<path style="fill:#722314;" d="M613.405,123.117c-0.585-0.578-1.406-1.136-2.22-0.9c-0.363,0.108-0.701,0.368-1.044,0.504
									c-0.343-0.136-0.682-0.396-1.044-0.504c-0.815-0.236-1.635,0.322-2.22,0.9c-0.591,0.585-1.182,1.274-2.023,1.399
									c0.953,0.427,2.056,0.427,3.101,0.328c0.731-0.058,1.456-0.166,2.188-0.194c0.731,0.028,1.456,0.136,2.188,0.194
									c1.044,0.099,2.148,0.099,3.101-0.328C614.588,124.391,613.996,123.701,613.405,123.117z"/>
							</g>
							<g>
								<g>
									<g>
										<g>
											<path style="fill:#0A1227;" d="M616.541,124.286c-1.018,0.375-2.103,0.636-3.21,0.612
												c-1.099-0.035-2.179-0.18-3.253-0.23h0.012c-1.175,0.021-2.364,0.274-3.576,0.173c-1.199-0.085-2.385-0.332-3.496-0.769
												c1.143,0.338,2.327,0.514,3.506,0.558c1.178,0.046,2.345-0.229,3.554-0.272h0.013c1.098,0.074,2.175,0.242,3.247,0.331
												C614.411,124.752,615.49,124.565,616.541,124.286z"/>
										</g>
									</g>
								</g>
							</g>
						</g>
					</g>
				</g>
				<path style="fill:#A1D2FF;" d="M653.176,214.212L653.176,214.212c-5.069,1.546-10.432-1.311-11.978-6.38l-15.452-50.678
					c-1.545-5.069,1.311-10.432,6.38-11.978l0,0c5.069-1.546,10.432,1.311,11.978,6.38l15.452,50.678
					C661.102,207.304,658.246,212.667,653.176,214.212z"/>
				<path style="fill:#A1D2FF;" d="M563.983,214.212L563.983,214.212c5.069,1.546,10.432-1.311,11.978-6.38l15.452-50.678
					c1.546-5.069-1.311-10.432-6.38-11.978l0,0c-5.069-1.546-10.432,1.311-11.978,6.38l-15.452,50.678
					C556.057,207.304,558.914,212.667,563.983,214.212z"/>
				<g>
					<g>
						<path style="fill:#C2DFFF;" d="M642.845,158.186l-4.901,11.83l-12.398,39.247h-35.512l-12.032-38.571l-4.883-12.782
							c-2.579-6.767,2.417-14.019,9.66-14.019h50.519C640.665,143.89,645.671,151.381,642.845,158.186z"/>
					</g>
					<rect x="594.739" y="137.615" style="fill:#C2DFFF;" width="26.598" height="12.123"/>
				</g>
				<g>
					<path style="fill:#A1D2FF;" d="M568.466,215.02L568.466,215.02c5.188-1.083,8.516-6.166,7.434-11.354l-10.821-51.865
						c-1.083-5.188-6.166-8.516-11.354-7.434l0,0c-5.188,1.082-8.516,6.166-7.434,11.354l10.821,51.865
						C558.195,212.775,563.278,216.103,568.466,215.02z"/>
					<g>
						<path style="fill:#9B4F38;" d="M562.917,132.798c-0.443-1.224-1.794-1.857-3.018-1.414l-5.394,1.952
							c-0.177,0.064-0.34,0.149-0.49,0.247l-1.227-10.731c-0.107-0.934-0.951-1.605-1.885-1.498l-0.548,0.063
							c-0.935,0.107-1.605,0.951-1.499,1.885l1.179,10.312l0,0l-4.128-9.454c-0.376-0.862-1.38-1.256-2.242-0.879l-0.505,0.221
							c-0.862,0.376-1.256,1.38-0.879,2.242l4.465,10.226c0,0,0,0,0,0l-1.068-1.049c-0.738-0.725-1.901-0.897-2.757-0.316
							c-1.167,0.793-1.268,2.394-0.316,3.329l0.702,0.69c-0.906-0.419-2.037-0.183-2.672,0.723
							c-0.611,0.872-0.429,2.076,0.331,2.822l2.327,2.285c0.433,0.425,0.999,0.627,1.561,0.613c0.194,0.506,0.434,0.98,0.714,1.42
							c1.985,3.337,6.116,4.909,9.903,3.538c2.973-1.076,4.948-3.682,5.366-6.607c0.598-0.948,0.811-2.126,0.51-3.272
							c0.905-2.531,1.857-5.192,1.857-5.192c0.189-0.631,0.101-1.278-0.193-1.813C562.987,133.027,562.958,132.912,562.917,132.798z
							"/>
						<path style="fill:none;stroke:#661F0C;stroke-width:0.75;stroke-miterlimit:10;" d="M554.811,144.509
							c-0.617-0.468-1.11-1.113-1.393-1.895c-0.555-1.533-0.153-3.179,0.9-4.284"/>
						<path style="fill:none;stroke:#661F0C;stroke-width:0.75;stroke-miterlimit:10;" d="M560.885,136.04l-5.394,1.952
							c-1.224,0.443-2.575-0.19-3.018-1.414l0,0c-0.443-1.224,0.19-2.575,1.414-3.018"/>
						<path style="fill:none;stroke:#661F0C;stroke-width:0.75;stroke-miterlimit:10;" d="M546.859,136.103l2.717,2.669
							c0.848,0.833,0.86,2.195,0.027,3.043l0,0c-0.833,0.848-2.195,0.86-3.043,0.027l-2.625-2.579"/>
						<path style="fill:none;stroke:#661F0C;stroke-width:0.75;stroke-miterlimit:10;" d="M544.448,139.908l1.6,1.572
							c0.848,0.833,0.86,2.195,0.027,3.043l0,0c-0.422,0.43-0.981,0.645-1.539,0.644"/>
					</g>
				</g>
			</g>
		</g>
		<g>
			<rect x="523.766" y="165.173" style="opacity:0.5;fill:#042068;" width="166.851" height="27.465"/>
			<g>
				<g>
					<path style="fill:#EF89A5;" d="M573.306,179.288c0-4.279,3.469-7.749,7.749-7.749c4.279,0,7.749,3.469,7.749,7.749
						c0,4.28-3.469,7.749-7.749,7.749C576.776,187.037,573.306,183.567,573.306,179.288z"/>
					<g>
						<g>
							<g>
								<g>
									<path style="fill:#FFFFFF;" d="M585.197,181.806l-1.339-1.34c-0.267-0.266-0.709-0.258-0.985,0.018l-0.675,0.675
										c-0.042-0.024-0.087-0.048-0.133-0.074c-0.426-0.236-1.009-0.56-1.623-1.174c-0.616-0.615-0.94-1.2-1.177-1.626
										c-0.025-0.045-0.049-0.089-0.073-0.13l0.453-0.452l0.223-0.223c0.277-0.276,0.284-0.718,0.018-0.985l-1.34-1.34
										c-0.266-0.266-0.708-0.258-0.984,0.019l-0.378,0.38l0.01,0.01c-0.127,0.162-0.232,0.348-0.311,0.549
										c-0.073,0.191-0.118,0.374-0.138,0.557c-0.177,1.466,0.493,2.806,2.312,4.625c2.514,2.513,4.539,2.324,4.627,2.314
										c0.19-0.022,0.373-0.068,0.558-0.14c0.199-0.078,0.385-0.183,0.547-0.31l0.008,0.007l0.382-0.374
										C585.455,182.514,585.463,182.073,585.197,181.806z"/>
								</g>
							</g>
						</g>
					</g>
				</g>
				<g>
					<g style="opacity:0.52;">
						
							<ellipse transform="matrix(0.7071 -0.7071 0.7071 0.7071 51.0666 481.8614)" style="fill:#FFFFFF;" cx="607.191" cy="179.288" rx="7.749" ry="7.749"/>
					</g>
					<g>
						<g>
							<path style="fill:#FFFFFF;" d="M607.191,181.22L607.191,181.22c-1.249,0-2.262-1.013-2.262-2.262v-2.784
								c0-1.249,1.013-2.262,2.262-2.262l0,0c1.249,0,2.262,1.013,2.262,2.262v2.784C609.453,180.208,608.441,181.22,607.191,181.22
								z"/>
						</g>
						<g>
							<path style="fill:#FFFFFF;" d="M607.191,182.509c-2.273,0-4.122-1.849-4.122-4.122c0-0.171,0.138-0.309,0.309-0.309
								c0.171,0,0.309,0.138,0.309,0.309c0,1.932,1.572,3.504,3.504,3.504c1.932,0,3.504-1.572,3.504-3.504
								c0-0.171,0.138-0.309,0.309-0.309c0.171,0,0.309,0.138,0.309,0.309C611.314,180.66,609.464,182.509,607.191,182.509z"/>
						</g>
						<g>
							<rect x="606.883" y="182.2" style="fill:#FFFFFF;" width="0.618" height="2.463"/>
						</g>
						<g>
							<path style="fill:#FFFFFF;" d="M609.081,184.663h-3.779l0,0c0-0.717,0.581-1.298,1.298-1.298h1.183
								C608.5,183.365,609.081,183.946,609.081,184.663L609.081,184.663z"/>
						</g>
					</g>
				</g>
				<g>
					<g>
						<g style="opacity:0.52;">
							
								<ellipse transform="matrix(0.1266 -0.992 0.992 0.1266 375.2999 784.8206)" style="fill:#FFFFFF;" cx="633.328" cy="179.288" rx="7.749" ry="7.749"/>
						</g>
						<g>
							<polygon style="fill:#FFFFFF;" points="634.317,183.912 628.305,180.382 628.305,178.194 634.317,174.663 							"/>
							<g>
								<g>
									<path style="fill:#FFFFFF;" d="M635.522,181.627c-0.084,0-0.161-0.06-0.187-0.154c-0.033-0.116,0.025-0.24,0.128-0.277
										c0.737-0.259,1.232-1.026,1.232-1.907s-0.495-1.649-1.232-1.908c-0.104-0.036-0.161-0.16-0.128-0.277
										c0.033-0.115,0.137-0.183,0.247-0.144c0.902,0.317,1.507,1.253,1.507,2.329c0,1.075-0.606,2.011-1.507,2.328
										C635.561,181.624,635.541,181.627,635.522,181.627z"/>
								</g>
								<g>
									<path style="fill:#FFFFFF;" d="M635.852,183.068c-0.084,0-0.161-0.06-0.188-0.154c-0.033-0.116,0.025-0.24,0.128-0.277
										c1.295-0.455,2.164-1.8,2.164-3.348c0-1.547-0.87-2.893-2.164-3.349c-0.104-0.036-0.161-0.16-0.128-0.277
										c0.031-0.115,0.141-0.183,0.247-0.144c1.459,0.514,2.44,2.029,2.44,3.77c0,1.742-0.981,3.256-2.44,3.769
										C635.891,183.064,635.871,183.068,635.852,183.068z"/>
								</g>
							</g>
						</g>
					</g>
					<line style="fill:#FFFFFF;" x1="634.994" y1="181.562" x2="634.994" y2="177.784"/>
				</g>
			</g>
		</g>
	</g>
	<g>
		<g>
			<rect x="59.383" y="66.783" style="fill:#FFFFFF;" width="166.851" height="125.925"/>
			<g>
				<defs>
					<rect id="SVGID_00000179608177501039703230000005651928759186389408_" x="83.69" y="74.47" width="118.238" height="118.238"/>
				</defs>
				<clipPath id="SVGID_00000113314846410930655250000010958568181047722134_">
					<use xlink:href="#SVGID_00000179608177501039703230000005651928759186389408_"  style="overflow:visible;"/>
				</clipPath>
				<g style="clip-path:url(#SVGID_00000113314846410930655250000010958568181047722134_);">
					<g>
						<g>
							
								<rect x="133.624" y="131.362" transform="matrix(-1 -1.224647e-16 1.224647e-16 -1 287.6304 293.2913)" style="fill:#FFB9A4;" width="20.382" height="30.566"/>
						</g>
						<g>
							<path style="fill:#E57461;" d="M143.815,151.101L143.815,151.101c5.628,0,10.191-4.563,10.191-10.191v-9.548h-20.382v9.548
								C133.624,146.538,138.187,151.101,143.815,151.101z"/>
						</g>
						<g>
							<g>
								<g>
									<path style="fill:#FFAD97;" d="M115.751,123.161c0-3.517,2.851-6.368,6.368-6.368c3.517,0,6.368,2.851,6.368,6.368
										c0,3.517-2.851,6.369-6.368,6.369C118.602,129.53,115.751,126.679,115.751,123.161z"/>
									<g>
										<path style="fill:#E57461;" d="M119.081,121.913c0.868-0.313,1.846-0.11,2.634,0.341c0.781,0.464,1.438,1.217,1.59,2.128
											c-0.723-0.548-1.331-1.007-2.016-1.4C120.613,122.576,119.914,122.272,119.081,121.913z"/>
										<path style="fill:#E57461;" d="M122.465,119.106c-1.222,0.614-2.164,1.468-2.739,2.542
											c-0.575,1.075-0.765,2.33-0.601,3.688c-0.815-1.137-0.833-2.799-0.142-4.087
											C119.674,119.962,121.067,119.058,122.465,119.106z"/>
									</g>
								</g>
							</g>
							<g>
								<g>
									<path style="fill:#FFAD97;" d="M172.22,123.161c0-3.517-2.851-6.368-6.368-6.368c-3.517,0-6.368,2.851-6.368,6.368
										c0,3.517,2.851,6.369,6.368,6.369C169.369,129.53,172.22,126.679,172.22,123.161z"/>
									<g>
										<path style="fill:#E57461;" d="M168.889,121.913c-0.868-0.313-1.846-0.11-2.634,0.341
											c-0.781,0.464-1.438,1.217-1.59,2.128c0.723-0.548,1.331-1.007,2.016-1.4
											C167.357,122.576,168.057,122.272,168.889,121.913z"/>
										<path style="fill:#E57461;" d="M165.506,119.106c1.222,0.614,2.164,1.468,2.739,2.542c0.575,1.075,0.765,2.33,0.601,3.688
											c0.815-1.137,0.833-2.799,0.142-4.087C168.297,119.962,166.904,119.058,165.506,119.106z"/>
									</g>
								</g>
							</g>
						</g>
						<g>
							<path style="fill:#FFB9A4;" d="M164.867,112.285c-0.01,0.1-0.01,0.19-0.01,0.28c0,0.03-0.01,0.05-0.01,0.08v0.51
								c-0.12,3.85-0.3,7.37-0.78,10.83c-0.11-0.03-0.21-0.05-0.33-0.05c-1.2-0.02-2.07,1.13-2.6,2.21
								c-0.61,1.25-1.06,2.58-1.69,3.82c-0.64,1.24-1.5,2.42-2.71,3.1c-0.72,0.41-1.54,0.62-2.37,0.68h-0.01
								c-2.67-2-6.35-3.24-10.44-3.24c-4.08,0-7.77,1.24-10.44,3.24c-0.82-0.06-1.64-0.27-2.36-0.68c-1.22-0.68-2.09-1.86-2.72-3.1
								c-0.63-1.24-1.08-2.57-1.69-3.82c-0.53-1.08-1.4-2.23-2.6-2.21c-0.11,0-0.22,0.01-0.33,0.04c-0.47-3.46-0.65-6.98-0.77-10.82
								c0-0.17-0.01-0.34-0.01-0.51c0-0.03,0-0.05-0.01-0.08c0-0.09,0-0.18-0.01-0.28c-0.1-4.87,0.82-9.62,3.15-13.76
								c0.76-1.36,1.67-2.67,2.76-3.88c2.18-2.44,4.82-4.33,7.77-5.5c0.07-0.04,0.15-0.07,0.23-0.1c1.21-0.47,2.46-0.81,3.74-1.02
								c0.31-0.05,0.61-0.1,0.92-0.13c0.52-0.06,1.05-0.1,1.59-0.11c0.27-0.01,0.53,0.01,0.79,0.01c0.26,0,0.51-0.02,0.78-0.01
								c0.86,0.02,1.7,0.1,2.51,0.24c0.79,0.13,1.57,0.31,2.33,0.54c0.48,0.14,0.95,0.3,1.41,0.48c0.24,0.09,0.48,0.19,0.72,0.3
								c2.75,1.18,5.23,3,7.29,5.3c1.48,1.66,2.65,3.48,3.54,5.41C164.257,103.815,164.956,108.005,164.867,112.285z"/>
						</g>
						<g>
							<g>
								<path style="fill:#9B4F38;" d="M127.99,110.879c-0.524,0.277-0.576,0.936-0.097,1.234c0.77,0.479,1.554,0.788,2.342,1.033
									c1.094,0.323,2.2,0.484,3.318,0.51s2.245-0.09,3.387-0.367c0.811-0.207,1.626-0.477,2.455-0.912
									c0.548-0.288,0.602-0.977,0.101-1.287c-0.758-0.468-1.529-0.771-2.304-1.011c-1.094-0.322-2.201-0.485-3.318-0.505
									c-1.118-0.02-2.246,0.096-3.387,0.372C129.662,110.158,128.833,110.433,127.99,110.879z"/>
								<path style="fill:#9B4F38;" d="M159.98,110.879c0.524,0.277,0.576,0.936,0.097,1.234c-0.77,0.479-1.554,0.788-2.342,1.033
									c-1.094,0.323-2.201,0.484-3.318,0.51c-1.117,0.026-2.246-0.09-3.387-0.367c-0.811-0.207-1.626-0.477-2.455-0.912
									c-0.548-0.288-0.602-0.977-0.101-1.287c0.758-0.468,1.529-0.771,2.304-1.011c1.094-0.322,2.201-0.485,3.318-0.505
									c1.118-0.02,2.246,0.096,3.387,0.372C158.308,110.158,159.138,110.433,159.98,110.879z"/>
							</g>
							<g>
								<g>
									<path style="fill:#FF8D73;" d="M139.136,121.596c0,0-1.069-4.547-4.285-5.167c-4.68-0.902-6.717,3.885-6.717,3.885
										s2.46,2.491,5.499,2.63C136.672,123.082,139.136,121.596,139.136,121.596z"/>
									<g>
										<path style="fill:#FEFEFE;" d="M139.132,121.604c0,0-2.452,1.478-5.499,1.34c-3.028-0.132-5.499-2.63-5.499-2.63
											l1.305-1.007c2.7-2.084,6.484-1.632,8.663,1.035L139.132,121.604z"/>
										
											<path style="fill:none;stroke:#FF8D73;stroke-width:0.3808;stroke-linecap:round;stroke-linejoin:round;stroke-miterlimit:10;" d="
											M139.327,118.855c-0.536-0.885-1.248-1.628-2.066-2.155"/>
										
											<path style="fill:#0A1227;stroke:#0A1227;stroke-width:0.1904;stroke-linecap:round;stroke-linejoin:round;stroke-miterlimit:10;" d="
											M128.463,119.955c0.19-0.171,0.689-0.576,0.877-0.749c0.43-0.346,0.885-0.677,1.392-0.907
											c0.999-0.503,2.143-0.654,3.248-0.547c1.1,0.151,2.185,0.559,3.053,1.281c0.446,0.341,0.818,0.771,1.165,1.207
											c0.312,0.455,0.637,0.897,0.935,1.364c-0.793-0.76-1.466-1.644-2.347-2.204c-0.864-0.589-1.856-0.94-2.868-1.069
											c-1.014-0.11-2.055,0.007-3.023,0.381c-0.978,0.342-1.823,1.051-2.761,1.602L128.463,119.955z"/>
									</g>
									<path style="fill:#0A1227;" d="M131.527,120.109c0-1.165,0.945-2.11,2.11-2.11c1.165,0,2.109,0.945,2.109,2.11
										c0,1.165-0.944,2.11-2.109,2.11C132.471,122.218,131.527,121.274,131.527,120.109z"/>
								</g>
								<g>
									<path style="fill:#FF8D73;" d="M148.835,121.596c0,0,1.069-4.547,4.285-5.167c4.68-0.902,6.717,3.885,6.717,3.885
										s-2.46,2.491-5.499,2.63C151.299,123.082,148.835,121.596,148.835,121.596z"/>
									<g>
										<path style="fill:#FEFEFE;" d="M148.838,121.604c0,0,2.452,1.478,5.499,1.34c3.028-0.132,5.499-2.63,5.499-2.63
											l-1.305-1.007c-2.7-2.084-6.484-1.632-8.663,1.035L148.838,121.604z"/>
										
											<path style="fill:none;stroke:#FF8D73;stroke-width:0.3808;stroke-linecap:round;stroke-linejoin:round;stroke-miterlimit:10;" d="
											M148.644,118.855c0.536-0.885,1.248-1.628,2.066-2.155"/>
										
											<path style="fill:#0A1227;stroke:#0A1227;stroke-width:0.1904;stroke-linecap:round;stroke-linejoin:round;stroke-miterlimit:10;" d="
											M159.507,119.955c-0.19-0.171-0.688-0.576-0.876-0.749c-0.43-0.346-0.885-0.677-1.392-0.907
											c-0.999-0.503-2.143-0.654-3.248-0.547c-1.1,0.151-2.186,0.559-3.053,1.281c-0.446,0.341-0.818,0.771-1.165,1.207
											c-0.312,0.455-0.637,0.897-0.935,1.364c0.793-0.76,1.466-1.644,2.347-2.204c0.864-0.589,1.856-0.94,2.868-1.069
											c1.014-0.11,2.055,0.007,3.023,0.381c0.978,0.342,1.823,1.051,2.76,1.602L159.507,119.955z"/>
									</g>
									<path style="fill:#0A1227;" d="M156.444,120.109c0-1.165-0.944-2.11-2.11-2.11c-1.165,0-2.11,0.945-2.11,2.11
										c0,1.165,0.944,2.11,2.11,2.11C155.5,122.218,156.444,121.274,156.444,120.109z"/>
								</g>
							</g>
							<g>
								
									<line style="fill:none;stroke:#0B064B;stroke-width:0.2248;stroke-linecap:round;stroke-linejoin:round;stroke-miterlimit:10;" x1="144.158" y1="125.337" x2="144.158" y2="119.286"/>
								
									<path style="fill:none;stroke:#0B064B;stroke-width:0.2248;stroke-linecap:round;stroke-linejoin:round;stroke-miterlimit:10;" d="
									M140.701,127.552l1.645,1.153c1.02,0.887,2.553,0.834,3.509-0.122l1.308-1.031"/>
							</g>
							<g>
								<path style="fill:#9B4F38;" d="M164.069,123.984c-0.063,0.459-0.135,0.926-0.207,1.385
									c-0.486,2.994-1.214,5.988-2.338,9.153c-0.701,1.96-1.673,3.875-2.967,5.494c-0.306,0.396-0.638,0.773-0.989,1.133
									c-0.009,0-0.009,0-0.009,0c-0.432,0.441-0.908,0.854-1.412,1.232c-3.47,2.581-7.553,5.727-11.563,5.359
									c-0.441-0.036-0.881-0.036-1.322,0c-4.01,0.369-8.092-2.778-11.563-5.359c-0.504-0.378-0.98-0.791-1.412-1.232
									c0,0,0,0-0.009,0l-0.989-1.133c-1.295-1.618-2.266-3.533-2.967-5.494c-1.124-3.165-1.852-6.159-2.338-9.153
									c-0.072-0.467-0.144-0.926-0.207-1.394c0.108-0.027,0.216-0.036,0.324-0.036c1.205-0.027,2.077,1.124,2.598,2.203
									c0.612,1.25,1.061,2.581,1.699,3.821c0.629,1.241,1.493,2.419,2.715,3.102c0.719,0.414,1.538,0.62,2.365,0.683
									c2.67-2.005,6.357-3.246,10.439-3.246c4.082,0,7.768,1.241,10.439,3.246h0.009c0.827-0.063,1.645-0.27,2.365-0.683
									c1.214-0.683,2.077-1.861,2.715-3.102c0.629-1.241,1.079-2.571,1.69-3.821c0.53-1.079,1.403-2.23,2.598-2.203
									C163.853,123.939,163.961,123.957,164.069,123.984z"/>
							</g>
							<g>
								<g>
									<g>
										<g>
											<path style="fill:#F2A694;" d="M149.255,136.546c0,0.048-0.122,0.177-0.316,0.364c-2.454,2.374-7.066,2.456-10.034-0.016
												c-0.201-0.167-0.294-0.3-0.294-0.348v-0.033l5.316,0.033H149.255z"/>
										</g>
									</g>
									<path style="fill:#DB8675;" d="M147.452,135.414c-0.621-0.469-1.493-0.921-2.358-0.73
										c-0.385,0.088-0.744,0.299-1.109,0.409c-0.365-0.11-0.724-0.321-1.109-0.409c-0.865-0.192-1.737,0.261-2.358,0.73
										c-0.628,0.474-1.256,1.033-2.149,1.135c1.012,0.346,2.184,0.346,3.293,0.266c0.777-0.047,1.547-0.135,2.323-0.158
										c0.776,0.023,1.546,0.111,2.323,0.158c1.109,0.08,2.281,0.08,3.293-0.266C148.708,136.448,148.08,135.888,147.452,135.414z
										"/>
								</g>
								<g>
									<path style="fill:#7C3727;" d="M137.216,136.051c2.299,0.126,4.52,0.322,6.762,0.376c2.241,0.085,4.473,0.029,6.776,0.086
										c-2.189,0.728-4.507,0.972-6.808,0.913C141.649,137.339,139.343,136.948,137.216,136.051z"/>
								</g>
							</g>
						</g>
					</g>
					<g>
						<path style="fill:#295566;" d="M191.058,233.165L191.058,233.165c6.889-1.724,11.076-8.706,9.352-15.594l-12.226-48.857
							c-1.724-6.889-8.706-11.076-15.595-9.352l0,0c-6.888,1.724-11.075,8.706-9.352,15.594l12.226,48.857
							C177.187,230.702,184.169,234.889,191.058,233.165z"/>
						<path style="fill:#295566;" d="M97.114,233.165L97.114,233.165c-6.889-1.724-11.076-8.706-9.352-15.594l12.226-48.857
							c1.724-6.889,8.706-11.076,15.595-9.352h0c6.889,1.724,11.075,8.706,9.352,15.594l-12.226,48.857
							C110.985,230.702,104.003,234.889,97.114,233.165z"/>
						<path style="fill:#295566;" d="M177.362,244.078h-65.903l-9.34-74.793c0-0.217,0.006-0.433,0.019-0.649
							c0.261-4.315,3.335-7.956,7.46-9.261l5.512-1.738v-0.032l4.004-1.432l14.136-5.073h22.182l14.13,5.073l4.01,1.432v0.032
							l5.512,1.738c4.124,1.305,7.192,4.945,7.46,9.261c0.013,0.217,0.019,0.433,0.019,0.649L177.362,244.078z"/>
					</g>
				</g>
			</g>
			<g>
				<rect x="59.383" y="165.193" style="opacity:0.5;fill:#042068;" width="166.851" height="27.465"/>
				<g>
					<g>
						<path style="fill:#EF89A5;" d="M108.923,179.308c0-4.28,3.469-7.749,7.749-7.749c4.279,0,7.749,3.469,7.749,7.749
							c0,4.279-3.469,7.749-7.749,7.749C112.393,187.057,108.923,183.587,108.923,179.308z"/>
						<g>
							<g>
								<g>
									<g>
										<path style="fill:#FFFFFF;" d="M120.814,181.826l-1.339-1.34c-0.267-0.266-0.709-0.258-0.985,0.019l-0.675,0.675
											c-0.042-0.023-0.087-0.048-0.133-0.074c-0.426-0.236-1.009-0.56-1.623-1.174c-0.616-0.615-0.939-1.2-1.176-1.626
											c-0.025-0.045-0.049-0.089-0.073-0.13l0.453-0.452l0.223-0.223c0.277-0.277,0.284-0.718,0.018-0.985l-1.34-1.34
											c-0.266-0.266-0.708-0.258-0.985,0.019l-0.378,0.38l0.01,0.01c-0.127,0.162-0.232,0.348-0.311,0.549
											c-0.072,0.191-0.118,0.374-0.138,0.557c-0.177,1.466,0.493,2.806,2.312,4.625c2.514,2.513,4.539,2.324,4.627,2.314
											c0.19-0.023,0.373-0.068,0.558-0.14c0.199-0.078,0.385-0.183,0.547-0.31l0.008,0.007l0.382-0.374
											C121.073,182.534,121.08,182.093,120.814,181.826z"/>
									</g>
								</g>
							</g>
						</g>
					</g>
					<g>
						<g style="opacity:0.52;">
							<circle style="fill:#FFFFFF;" cx="142.809" cy="179.308" r="7.749"/>
						</g>
						<g>
							<g>
								<path style="fill:#FFFFFF;" d="M142.809,181.24L142.809,181.24c-1.249,0-2.262-1.013-2.262-2.262v-2.784
									c0-1.249,1.013-2.262,2.262-2.262l0,0c1.249,0,2.262,1.013,2.262,2.262v2.784
									C145.071,180.228,144.058,181.24,142.809,181.24z"/>
							</g>
							<g>
								<path style="fill:#FFFFFF;" d="M142.809,182.529c-2.273,0-4.122-1.849-4.122-4.122c0-0.171,0.138-0.309,0.309-0.309
									c0.171,0,0.309,0.138,0.309,0.309c0,1.932,1.572,3.504,3.504,3.504c1.932,0,3.504-1.572,3.504-3.504
									c0-0.171,0.138-0.309,0.309-0.309s0.309,0.138,0.309,0.309C146.931,180.68,145.082,182.529,142.809,182.529z"/>
							</g>
							<g>
								<rect x="142.5" y="182.22" style="fill:#FFFFFF;" width="0.618" height="2.463"/>
							</g>
							<g>
								<path style="fill:#FFFFFF;" d="M144.698,184.683h-3.779l0,0c0-0.717,0.581-1.298,1.298-1.298h1.183
									C144.117,183.385,144.698,183.966,144.698,184.683L144.698,184.683z"/>
							</g>
						</g>
					</g>
					<g>
						<g>
							<g style="opacity:0.52;">
								<circle style="fill:#FFFFFF;" cx="168.945" cy="179.308" r="7.749"/>
							</g>
							<g>
								<polygon style="fill:#FFFFFF;" points="169.934,183.932 163.923,180.402 163.923,178.214 169.934,174.683 								"/>
								<g>
									<g>
										<path style="fill:#FFFFFF;" d="M171.139,181.647c-0.084,0-0.161-0.06-0.188-0.154c-0.033-0.116,0.025-0.24,0.128-0.277
											c0.737-0.259,1.232-1.026,1.232-1.907c0-0.882-0.495-1.649-1.232-1.908c-0.104-0.036-0.161-0.16-0.128-0.277
											c0.033-0.115,0.137-0.183,0.247-0.144c0.902,0.317,1.507,1.253,1.507,2.329c0,1.075-0.606,2.011-1.507,2.328
											C171.178,181.643,171.158,181.647,171.139,181.647z"/>
									</g>
									<g>
										<path style="fill:#FFFFFF;" d="M171.469,183.088c-0.084,0-0.161-0.06-0.188-0.154c-0.033-0.116,0.025-0.24,0.128-0.277
											c1.295-0.455,2.164-1.8,2.164-3.348c0-1.547-0.87-2.893-2.164-3.349c-0.104-0.036-0.161-0.16-0.128-0.277
											c0.031-0.115,0.141-0.183,0.247-0.144c1.459,0.514,2.44,2.029,2.44,3.77c0,1.742-0.981,3.256-2.44,3.769
											C171.508,183.085,171.488,183.088,171.469,183.088z"/>
									</g>
								</g>
							</g>
						</g>
						<line style="fill:#FFFFFF;" x1="170.611" y1="181.581" x2="170.611" y2="177.804"/>
					</g>
				</g>
			</g>
		</g>
	</g>
	<ellipse style="opacity:0.2;fill:#935888;" cx="375.491" cy="450.613" rx="213.966" ry="19.036"/>
	<g>
		<g>
			<g>
				<rect x="370.346" y="284.516" style="fill:#292984;" width="9.691" height="121.751"/>
				<path style="fill:#3E3E9B;" d="M372.009,383.979h-1.664v-99.463h9.691v91.435C380.037,380.385,376.443,383.979,372.009,383.979z
					"/>
			</g>
			<g>
				<g>
					<g>
						
							<path style="fill:none;stroke:#3E3E9B;stroke-width:2.0296;stroke-linecap:round;stroke-linejoin:round;stroke-miterlimit:10;" d="
							M421.16,416.516c-0.412-0.97-0.64-2.037-0.64-3.157c0-4.464,3.619-8.083,8.083-8.083s8.083,3.619,8.083,8.083
							c0,1.116-0.226,2.179-0.635,3.146"/>
						<g>
							<g>
								<path style="fill:#5959C1;" d="M435.141,413.355c0,3.613-2.933,6.535-6.535,6.535c-3.44,0-6.261-2.649-6.515-6.028
									c-0.01-0.162-0.02-0.335-0.02-0.507c0-3.603,2.923-6.535,6.535-6.535c1.989,0,3.765,0.893,4.962,2.293
									C434.553,410.25,435.141,411.742,435.141,413.355z"/>
							</g>
							<g>
								<path style="fill:#7474D6;" d="M433.589,409.621c0,3.613-2.923,6.535-6.535,6.535c-1.989,0-3.775-0.883-4.962-2.293
									c-0.01-0.162-0.02-0.335-0.02-0.507c0-3.603,2.923-6.535,6.535-6.535c1.989,0,3.765,0.893,4.962,2.293
									C433.579,409.286,433.589,409.448,433.589,409.621z"/>
							</g>
						</g>
					</g>
					<g>
						
							<path style="fill:none;stroke:#3E3E9B;stroke-width:2.0296;stroke-linecap:round;stroke-linejoin:round;stroke-miterlimit:10;" d="
							M314.337,416.516c-0.412-0.97-0.64-2.037-0.64-3.157c0-4.464,3.619-8.083,8.083-8.083s8.083,3.619,8.083,8.083
							c0,1.116-0.226,2.179-0.635,3.146"/>
						<g>
							<g>
								<path style="fill:#5959C1;" d="M328.319,413.355c0,3.613-2.933,6.535-6.535,6.535c-3.44,0-6.261-2.649-6.515-6.028
									c-0.01-0.162-0.02-0.335-0.02-0.507c0-3.603,2.923-6.535,6.535-6.535c1.989,0,3.765,0.893,4.962,2.293
									C327.73,410.25,328.319,411.742,328.319,413.355z"/>
							</g>
							<g>
								<path style="fill:#7474D6;" d="M326.766,409.621c0,3.613-2.923,6.535-6.535,6.535c-1.989,0-3.775-0.883-4.962-2.293
									c-0.01-0.162-0.02-0.335-0.02-0.507c0-3.603,2.923-6.535,6.535-6.535c1.989,0,3.765,0.893,4.962,2.293
									C326.756,409.286,326.766,409.448,326.766,409.621z"/>
							</g>
						</g>
					</g>
				</g>
				<path style="fill:#292984;" d="M438.596,410.433H311.787l0,0c0-4.86,3.939-8.799,8.799-8.799h109.211
					C434.656,401.634,438.596,405.573,438.596,410.433L438.596,410.433z"/>
			</g>
			<g>
				<g>
					<g>
						
							<path style="fill:none;stroke:#3E3E9B;stroke-width:2.0296;stroke-linecap:round;stroke-linejoin:round;stroke-miterlimit:10;" d="
							M406.137,437.995c-0.412-0.97-0.64-2.037-0.64-3.157c0-4.464,3.619-8.083,8.083-8.083c4.464,0,8.083,3.619,8.083,8.083
							c0,1.116-0.226,2.179-0.635,3.146"/>
						<g>
							<g>
								<path style="fill:#5959C1;" d="M420.119,434.834c0,3.613-2.933,6.535-6.535,6.535c-3.44,0-6.261-2.649-6.515-6.028
									c-0.01-0.162-0.02-0.335-0.02-0.507c0-3.603,2.923-6.535,6.535-6.535c1.989,0,3.765,0.893,4.962,2.293
									C419.53,431.728,420.119,433.22,420.119,434.834z"/>
							</g>
							<g>
								<path style="fill:#7474D6;" d="M418.566,431.099c0,3.613-2.923,6.535-6.535,6.535c-1.989,0-3.775-0.883-4.962-2.293
									c-0.01-0.162-0.02-0.335-0.02-0.507c0-3.603,2.923-6.535,6.535-6.535c1.989,0,3.765,0.893,4.962,2.293
									C418.556,430.764,418.566,430.927,418.566,431.099z"/>
							</g>
						</g>
					</g>
					<g>
						
							<path style="fill:none;stroke:#3E3E9B;stroke-width:2.0296;stroke-linecap:round;stroke-linejoin:round;stroke-miterlimit:10;" d="
							M329.36,437.995c-0.412-0.97-0.64-2.037-0.64-3.157c0-4.464,3.619-8.083,8.083-8.083c4.464,0,8.083,3.619,8.083,8.083
							c0,1.116-0.226,2.179-0.635,3.146"/>
						<g>
							<g>
								<path style="fill:#5959C1;" d="M343.342,434.834c0,3.613-2.933,6.535-6.535,6.535c-3.44,0-6.261-2.649-6.515-6.028
									c-0.01-0.162-0.02-0.335-0.02-0.507c0-3.603,2.923-6.535,6.535-6.535c1.989,0,3.765,0.893,4.962,2.293
									C342.753,431.728,343.342,433.22,343.342,434.834z"/>
							</g>
							<g>
								<path style="fill:#7474D6;" d="M341.789,431.099c0,3.613-2.922,6.535-6.535,6.535c-1.989,0-3.775-0.883-4.962-2.293
									c-0.01-0.162-0.02-0.335-0.02-0.507c0-3.603,2.923-6.535,6.535-6.535c1.989,0,3.765,0.893,4.962,2.293
									C341.779,430.764,341.789,430.927,341.789,431.099z"/>
							</g>
						</g>
					</g>
				</g>
				<g>
					<path style="fill:#292984;" d="M424.061,437.659l-50.452-26.533l-47.168,26.473l0,0c-2.469-4.398-0.905-9.965,3.494-12.434
						l43.532-24.433l46.763,24.593C424.693,427.673,426.409,433.195,424.061,437.659L424.061,437.659z"/>
				</g>
			</g>
		</g>
		<g>
			<g>
				<rect x="329.873" y="168.565" style="fill:#7474D6;" width="8.734" height="26.796"/>
				<rect x="329.873" y="168.565" style="fill:#5454B5;" width="8.734" height="26.796"/>
				<path style="fill:#7474D6;" d="M331.061,188.567h-1.188v-20.002h8.734v12.456C338.607,185.189,335.229,188.567,331.061,188.567z
					"/>
			</g>
			<g>
				<rect x="407.138" y="168.565" style="fill:#7474D6;" width="8.735" height="26.796"/>
				<rect x="407.138" y="168.565" style="fill:#5454B5;" width="8.735" height="26.796"/>
				<path style="fill:#7474D6;" d="M408.326,188.567h-1.188v-20.002h8.735v12.456C415.872,185.189,412.494,188.567,408.326,188.567z
					"/>
			</g>
		</g>
		<g>
			<path style="fill:#AAA6F4;" d="M432.003,173.614l-59.995-2.432l-58.251,2.417c-8.251,0.342-15.127-6.254-15.127-14.513v-40.073
				c0-8.337,7.003-14.963,15.327-14.503l58.051,3.211l59.8-3.232c8.318-0.45,15.309,6.174,15.309,14.504v40.107
				C447.116,167.354,440.249,173.949,432.003,173.614z"/>
			<path style="fill:#BBB4F9;" d="M391.928,171.99l-19.921-0.807l-58.251,2.417c-8.251,0.342-15.127-6.254-15.127-14.513v-40.073
				c0-8.337,7.003-14.963,15.327-14.503l58.051,3.211l59.8-3.232c8.318-0.45,15.309,6.174,15.309,14.504v0
				C447.116,149.13,422.039,173.21,391.928,171.99z"/>
			<path style="fill:none;stroke:#AAA6F4;stroke-width:2.0296;stroke-miterlimit:10;" d="M432.003,173.614l-59.995-2.432
				l-58.251,2.417c-8.251,0.342-15.127-6.254-15.127-14.513v-40.073c0-8.337,7.003-14.963,15.327-14.503l58.051,3.211l59.8-3.232
				c8.318-0.45,15.309,6.174,15.309,14.504v40.107C447.116,167.354,440.249,173.949,432.003,173.614z"/>
			<g>
				<g>
					<path style="fill:#5454B5;" d="M338.61,139.044c0,2.415-1.958,4.374-4.374,4.374c-1.471,0-2.77-0.731-3.562-1.857
						c-0.507-0.71-0.802-1.583-0.802-2.517c0-2.405,1.959-4.364,4.364-4.364c0.203,0,0.406,0.01,0.609,0.051
						C336.976,135.015,338.61,136.842,338.61,139.044z"/>
					<path style="fill:#7474D6;" d="M335.647,137.248c0,2.415-1.959,4.364-4.364,4.364c-0.203,0-0.406-0.01-0.609-0.051
						c-0.507-0.71-0.802-1.583-0.802-2.517c0-2.405,1.959-4.364,4.364-4.364c0.203,0,0.406,0.01,0.609,0.051
						C335.353,135.441,335.647,136.314,335.647,137.248z"/>
				</g>
				<g>
					<path style="fill:#5454B5;" d="M415.872,139.044c0,2.415-1.959,4.374-4.374,4.374c-1.471,0-2.771-0.731-3.562-1.857
						c-0.507-0.71-0.802-1.583-0.802-2.517c0-2.405,1.959-4.364,4.364-4.364c0.203,0,0.406,0.01,0.609,0.051
						C414.238,135.015,415.872,136.842,415.872,139.044z"/>
					<path style="fill:#7474D6;" d="M412.909,137.248c0,2.415-1.959,4.364-4.364,4.364c-0.203,0-0.406-0.01-0.609-0.051
						c-0.507-0.71-0.802-1.583-0.802-2.517c0-2.405,1.959-4.364,4.364-4.364c0.203,0,0.406,0.01,0.609,0.051
						C412.615,135.441,412.909,136.314,412.909,137.248z"/>
				</g>
			</g>
		</g>
		<g>
			<path style="fill:#AAA6F4;" d="M447.278,214.028l-2.699,59.559c-0.365,10.747-9.184,19.271-19.931,19.271H322.833
				c-10.757,0-19.565-8.524-19.931-19.271l-2.71-59.559c-0.386-11.274,8.656-20.611,19.931-20.611h107.234
				C438.632,193.417,447.663,202.753,447.278,214.028z"/>
			<path style="fill:#BBB4F9;" d="M391.068,285.307c-4.272,2.953-8.707,5.47-13.233,7.55h-55.002
				c-10.757,0-19.565-8.524-19.931-19.271l-2.71-59.559c-0.386-11.274,8.656-20.611,19.931-20.611h100.181
				C435.059,223.648,423.146,263.083,391.068,285.307z"/>
		</g>
		<g>
			<g>
				<path style="fill:#5252BA;" d="M473.216,217.947h-17.313v63.373h-12.898v-68.477c0-4.404,3.562-7.976,7.966-7.976h9.164
					C467.361,204.866,473.216,210.721,473.216,217.947z"/>
				<path style="fill:#6060C6;" d="M450.88,228.074c-1.796,6.789-4.567,32.817-7.875,37.607v-52.839
					c0-4.404,3.562-7.976,7.966-7.976h1.228C453.448,211.523,453.103,219.662,450.88,228.074z"/>
			</g>
			<g>
				<path style="fill:#6060C6;" d="M307.976,212.842v68.477h-12.898v-63.373h-17.313c0-7.225,5.866-13.081,13.081-13.081h9.164
					c1.898,0,3.643,0.66,5.003,1.766C306.819,208.103,307.976,210.336,307.976,212.842z"/>
				<path style="fill:#7171D1;" d="M305.013,206.632c-0.081,3.136-0.436,6.444-1.076,9.833c-1.674,8.809-4.962,36.389-8.859,41.392
					v-39.91h-17.313c0-7.225,5.866-13.081,13.081-13.081h9.164C301.907,204.866,303.653,205.525,305.013,206.632z"/>
			</g>
		</g>
		<g>
			<path style="fill:#5454B5;" d="M456.33,277.422c0,5.013-2.03,9.559-5.328,12.847c-3.288,3.288-7.824,5.318-12.847,5.318H313.121
				c-7.52,0-13.974-4.567-16.734-11.071c-0.923-2.182-1.441-4.577-1.441-7.094c0-5.013,2.04-9.559,5.328-12.847
				c3.288-3.288,7.834-5.328,12.847-5.328h125.034C448.191,259.247,456.33,267.386,456.33,277.422z"/>
			<path style="fill:#7474D6;" d="M434.583,266.351c0,5.023-2.04,9.56-5.328,12.847c-3.288,3.288-7.834,5.318-12.847,5.318H296.387
				c-0.923-2.182-1.441-4.577-1.441-7.094c0-5.013,2.04-9.559,5.328-12.847c3.288-3.288,7.834-5.328,12.847-5.328h120.021
				C434.065,261.429,434.583,263.824,434.583,266.351z"/>
		</g>
	</g>
	<g>
		<g>
			<path style="fill:#0A1227;" d="M375.892,121.177L375.892,121.177c-12.325,0-22.428-9.971-22.835-22.536l-0.673-20.773
				c-0.336-10.363,7.809-18.949,17.973-18.949h11.069c10.164,0,18.309,8.586,17.973,18.949l-0.673,20.773
				C398.32,111.205,388.216,121.177,375.892,121.177z"/>
			<g>
				
					<rect x="365.571" y="105.179" transform="matrix(-1 -1.224647e-16 1.224647e-16 -1 751.6023 240.3933)" style="fill:#FFB9A4;" width="20.46" height="30.036"/>
				<path style="fill:#E57461;" d="M375.801,128.039L375.801,128.039c5.65,0,10.23-4.58,10.23-10.23v-12.631h-20.46v12.631
					C365.571,123.459,370.151,128.039,375.801,128.039z"/>
			</g>
			<g>
				<g>
					<g>
						<path style="fill:#FFAD97;" d="M347.025,97.12c0-3.456,2.802-6.258,6.258-6.258c3.456,0,6.258,2.802,6.258,6.258
							c0,3.456-2.802,6.258-6.258,6.258C349.827,103.378,347.025,100.576,347.025,97.12z"/>
						<g>
							<path style="fill:#E57461;" d="M350.298,95.894c0.853-0.308,1.814-0.109,2.589,0.335c0.768,0.456,1.413,1.196,1.563,2.091
								c-0.711-0.538-1.308-0.99-1.98-1.376C351.803,96.545,351.116,96.246,350.298,95.894z"/>
							<path style="fill:#E57461;" d="M353.623,93.135c-1.201,0.603-2.126,1.442-2.692,2.498c-0.565,1.057-0.752,2.29-0.591,3.625
								c-0.801-1.117-0.819-2.751-0.139-4.016C350.88,93.976,352.249,93.088,353.623,93.135z"/>
						</g>
					</g>
				</g>
				<g>
					<g>
						<path style="fill:#FFAD97;" d="M405.358,97.12c0-3.456-2.802-6.258-6.258-6.258c-3.456,0-6.258,2.802-6.258,6.258
							c0,3.456,2.802,6.258,6.258,6.258C402.556,103.378,405.358,100.576,405.358,97.12z"/>
						<g>
							<path style="fill:#E57461;" d="M402.085,95.894c-0.853-0.308-1.814-0.109-2.589,0.335c-0.768,0.456-1.413,1.196-1.563,2.091
								c0.711-0.538,1.308-0.99,1.98-1.376C400.579,96.545,401.267,96.246,402.085,95.894z"/>
							<path style="fill:#E57461;" d="M398.76,93.135c1.201,0.603,2.126,1.442,2.692,2.498c0.565,1.057,0.752,2.29,0.591,3.625
								c0.801-1.117,0.819-2.751,0.139-4.016C401.502,93.976,400.133,93.088,398.76,93.135z"/>
						</g>
					</g>
				</g>
			</g>
			<g>
				<path style="fill:#FFB9A4;" d="M397.632,86.435c-0.01,0.09-0.01,0.18-0.01,0.27v0.58c-0.14,4.29-0.36,8.16-0.97,12
					c-0.05,0.3-0.1,0.6-0.16,0.9v0.01c-0.12,0.7-0.26,1.39-0.42,2.09c-0.04,0.19-0.08,0.37-0.13,0.56c-0.4,1.78-0.93,3.58-1.59,5.43
					c-0.56,1.58-1.73,4.15-2.71,6.24c-0.65,1.38-3.44,4.14-5.17,6c-1.13,1.2-2.44,2.22-3.89,3.02l-2.05,1.12
					c-0.68,0.37-1.45,0.57-2.23,0.57h-4.61c-0.75,0-1.48-0.18-2.14-0.52l-2.81-1.46c-1.16-0.6-2.24-1.35-3.22-2.22
					c-2.07-1.85-5.25-5.14-6.03-6.8c-0.95-2.04-2.04-4.45-2.57-5.95c-0.66-1.85-1.17-3.64-1.59-5.42c-0.05-0.19-0.1-0.38-0.13-0.57
					c-0.16-0.69-0.3-1.38-0.42-2.08c-0.06-0.3-0.11-0.61-0.16-0.92c-0.62-3.84-0.83-7.71-0.96-12c0-0.16-0.01-0.33-0.01-0.5
					c0-0.03,0-0.05-0.01-0.08c0-0.09,0-0.18-0.01-0.27c-0.09-4.79,0.81-9.46,3.09-13.52c0.01-0.02,0.02-0.04,0.04-0.06
					c0.21-0.38,0.44-0.75,0.67-1.12c0.01-0.01,0.02-0.03,0.03-0.04c0.58-0.91,1.24-1.77,1.97-2.59c2.2-2.46,4.88-4.36,7.87-5.51
					c1.18-0.46,4.31-0.8,5.57-0.99c0.3-0.06,0.6-0.11,0.9-0.14c0.51-0.06,1.03-0.1,1.57-0.11c0.26-0.01,0.52,0.01,0.77,0.01
					c0.26,0,0.5-0.02,0.77-0.01c0.84,0.02,2.61,0.1,3.41,0.25c0.78,0.12,1.54,0.29,2.3,0.52c0.46,0.13,0.92,0.29,1.38,0.47
					c2.98,1.15,5.67,3.05,7.86,5.51c0.74,0.82,1.41,1.7,1.99,2.6c0,0.01,0.01,0.01,0.01,0.02c0.24,0.37,0.47,0.74,0.69,1.12
					c0.28,0.51,0.55,1.03,0.79,1.57C397.042,78.115,397.732,82.225,397.632,86.435z"/>
				<g>
					<path style="fill:#0A1227;" d="M355.971,100.725c0,0-0.46-0.2-1.19-0.52c-0.06-0.3-0.11-0.61-0.16-0.92
						c-0.62-3.84-0.83-7.71-0.96-12c0-0.16-0.01-0.33-0.01-0.5c0-0.03,0-0.05-0.01-0.08c0-0.09,0-0.18-0.01-0.27
						c-0.09-4.79,0.81-9.46,3.09-13.52c0.01-0.02,0.02-0.04,0.04-0.06c0.21-0.38,0.44-0.75,0.67-1.12c0.01-0.01,0.02-0.03,0.03-0.04
						c0.31,0.23,0.62,0.45,0.94,0.67C354.081,81.225,355.971,100.725,355.971,100.725z"/>
					<path style="fill:#0A1227;" d="M397.632,86.435c-0.01,0.09-0.01,0.18-0.01,0.27v0.58c-0.14,4.29-0.36,8.16-0.97,12
						c-0.05,0.3-0.1,0.6-0.16,0.9v0.01c-0.73,0.32-1.2,0.53-1.2,0.53s1.9-19.5-2.43-28.36c0.32-0.21,0.64-0.43,0.96-0.66
						c0,0.01,0.01,0.01,0.01,0.02c0.24,0.37,0.47,0.74,0.69,1.12c0.28,0.51,0.55,1.03,0.79,1.57
						C397.042,78.115,397.732,82.225,397.632,86.435z"/>
				</g>
			</g>
			<g>
				<g>
					<path style="fill:#0A1227;" d="M359.611,85.051c-0.515,0.272-0.566,0.92-0.095,1.213c0.757,0.471,1.526,0.774,2.301,1.015
						c1.075,0.317,2.162,0.476,3.26,0.502c1.098,0.025,2.207-0.089,3.328-0.36c0.797-0.204,1.598-0.469,2.412-0.897
						c0.538-0.283,0.592-0.96,0.099-1.264c-0.745-0.46-1.502-0.757-2.264-0.993c-1.075-0.317-2.162-0.476-3.26-0.496
						c-1.098-0.02-2.207,0.094-3.328,0.366C361.253,84.342,360.439,84.613,359.611,85.051z"/>
					<path style="fill:#0A1227;" d="M391.993,85.051c0.515,0.272,0.566,0.92,0.095,1.213c-0.757,0.471-1.527,0.774-2.301,1.015
						c-1.075,0.317-2.162,0.476-3.26,0.502c-1.098,0.025-2.207-0.089-3.328-0.36c-0.797-0.204-1.598-0.469-2.412-0.897
						c-0.538-0.283-0.591-0.96-0.099-1.264c0.745-0.46,1.502-0.757,2.264-0.993c1.075-0.317,2.162-0.476,3.26-0.496
						c1.098-0.02,2.207,0.094,3.328,0.366C390.35,84.342,391.165,84.613,391.993,85.051z"/>
				</g>
				<g>
					<g>
						<path style="fill:#FF8D73;" d="M370.563,95.582c0,0-1.051-4.468-4.211-5.077c-4.599-0.887-6.6,3.817-6.6,3.817
							s2.417,2.448,5.404,2.584C368.141,97.042,370.563,95.582,370.563,95.582z"/>
						<g>
							<path style="fill:#FEFEFE;" d="M370.559,95.59c0,0-2.41,1.452-5.404,1.316c-2.975-0.13-5.404-2.584-5.404-2.584l1.282-0.989
								c2.653-2.048,6.371-1.603,8.513,1.017L370.559,95.59z"/>
							
								<path style="fill:none;stroke:#FF8D73;stroke-width:0.3742;stroke-linecap:round;stroke-linejoin:round;stroke-miterlimit:10;" d="
								M370.75,92.888c-0.527-0.87-1.227-1.6-2.031-2.117"/>
							
								<path style="fill:#0A1227;stroke:#0A1227;stroke-width:0.1871;stroke-linecap:round;stroke-linejoin:round;stroke-miterlimit:10;" d="
								M360.075,93.969c0.186-0.168,0.676-0.566,0.861-0.736c0.422-0.34,0.87-0.665,1.368-0.892
								c0.981-0.494,2.105-0.643,3.192-0.537c1.081,0.148,2.147,0.55,3,1.259c0.439,0.335,0.804,0.757,1.145,1.186
								c0.306,0.447,0.626,0.882,0.919,1.34c-0.78-0.746-1.441-1.616-2.307-2.166c-0.849-0.579-1.824-0.924-2.818-1.05
								c-0.996-0.108-2.02,0.007-2.971,0.374c-0.961,0.336-1.791,1.033-2.713,1.574L360.075,93.969z"/>
						</g>
						<circle style="fill:#0A1227;" cx="365.158" cy="94.12" r="2.073"/>
					</g>
					<g>
						<path style="fill:#FF8D73;" d="M381.041,95.582c0,0,1.051-4.468,4.211-5.077c4.599-0.887,6.6,3.817,6.6,3.817
							s-2.417,2.448-5.404,2.584C383.462,97.042,381.041,95.582,381.041,95.582z"/>
						<g>
							<path style="fill:#FEFEFE;" d="M381.044,95.59c0,0,2.41,1.452,5.404,1.316c2.975-0.13,5.404-2.584,5.404-2.584l-1.282-0.989
								c-2.653-2.048-6.372-1.603-8.513,1.017L381.044,95.59z"/>
							
								<path style="fill:none;stroke:#FF8D73;stroke-width:0.3742;stroke-linecap:round;stroke-linejoin:round;stroke-miterlimit:10;" d="
								M380.853,92.888c0.527-0.87,1.227-1.6,2.031-2.117"/>
							
								<path style="fill:#0A1227;stroke:#0A1227;stroke-width:0.1871;stroke-linecap:round;stroke-linejoin:round;stroke-miterlimit:10;" d="
								M391.528,93.969c-0.186-0.168-0.676-0.566-0.861-0.736c-0.422-0.34-0.87-0.665-1.367-0.892
								c-0.982-0.494-2.105-0.643-3.192-0.537c-1.081,0.148-2.147,0.55-3,1.259c-0.438,0.335-0.804,0.757-1.145,1.186
								c-0.307,0.447-0.626,0.882-0.919,1.34c0.78-0.746,1.441-1.616,2.307-2.166c0.849-0.579,1.824-0.924,2.818-1.05
								c0.997-0.108,2.019,0.007,2.971,0.374c0.961,0.336,1.791,1.033,2.713,1.574L391.528,93.969z"/>
						</g>
						<path style="fill:#0A1227;" d="M388.518,94.12c0-1.145-0.928-2.073-2.073-2.073s-2.073,0.928-2.073,2.073
							s0.928,2.073,2.073,2.073S388.518,95.265,388.518,94.12z"/>
					</g>
				</g>
				<g>
					
						<line style="fill:none;stroke:#FF8D73;stroke-width:0.4056;stroke-linecap:round;stroke-linejoin:round;stroke-miterlimit:10;" x1="375.802" y1="116.847" x2="375.802" y2="119.533"/>
				</g>
				<g>
					
						<line style="fill:none;stroke:#0B064B;stroke-width:0.2209;stroke-linecap:round;stroke-linejoin:round;stroke-miterlimit:10;" x1="376.023" y1="98.005" x2="376.023" y2="92.059"/>
					
						<path style="fill:none;stroke:#0B064B;stroke-width:0.2209;stroke-linecap:round;stroke-linejoin:round;stroke-miterlimit:10;" d="
						M372.627,101.655l1.617,1.133c1.002,0.872,2.509,0.819,3.448-0.12l1.286-1.013"/>
				</g>
				<g>
					<path style="fill:#0A1227;" d="M369.006,107.313c0,0.507,0.051,1.013,0.169,1.503c0.49,2.178,2.06,3.968,4.103,4.778
						c0.084,0.034,0.169,0.067,0.253,0.084c0.709,0.287,1.486,0.422,2.279,0.422c1.891,0,3.63-0.794,4.863-2.077
						c0.135-0.118,0.253-0.27,0.372-0.405c0.675-0.793,1.148-1.756,1.384-2.803c0.118-0.473,0.169-0.979,0.169-1.503v-0.051
						l-6.787,0.051H369.006z"/>
					<path style="fill:#EF7265;" d="M373.531,113.678c0.709,0.287,1.486,0.422,2.279,0.422c1.891,0,3.63-0.794,4.863-2.077
						c-0.794-0.658-1.807-1.03-2.904-1.03C375.911,110.993,374.291,112.091,373.531,113.678z"/>
					<path style="fill:#FCFCFC;" d="M369.006,107.313c0,0.507,0.051,1.013,0.169,1.503h13.254c0.118-0.473,0.169-0.979,0.169-1.503
						v-0.051l-6.787,0.051H369.006z"/>
				</g>
				<path style="fill:none;stroke:#0A1227;stroke-width:3;stroke-miterlimit:10;" d="M365.573,110.685c1.8-2.89,5.8-4.89,10.45-4.89
					s8.65,2,10.45,4.89"/>
			</g>
			<g>
				<path style="fill:#0A1227;" d="M386.614,75.12c-6.956-1.075-14.086-1.075-21.042,0c-5.988,0.925-11.32-4.213-11.32-10.813
					v-0.005c0-3.173,1.955-5.658,4.217-5.359l8.634-0.937c6.043-0.656,12.141-0.651,18.183,0.014l8.427,0.928
					c2.263-0.302,4.221,2.183,4.221,5.358v0C397.934,70.908,392.601,76.045,386.614,75.12z"/>
				<g>
					<path style="fill:#0A1227;" d="M395.853,70.108c1.263-1.816,2.274-3.673,2.946-5.68c0.691-2.001,1.025-4.088,1.135-6.297
						c0.686,2.122,0.527,4.489-0.189,6.619C399.01,66.874,397.69,68.845,395.853,70.108z"/>
					<path style="fill:#0A1227;" d="M393.13,68.635c1.567,0.079,3.008,0.069,4.449-0.165c1.444-0.215,2.819-0.641,4.29-1.189
						c-1.025,1.212-2.567,1.924-4.137,2.176C396.158,69.69,394.474,69.478,393.13,68.635z"/>
				</g>
			</g>
		</g>
		<polygon style="fill:#102328;" points="422.197,280.553 333.646,280.553 341.113,243.564 413.547,243.564 		"/>
		<g>
			<g>
				<g>
					<polygon style="fill:#E986A2;" points="343.906,439.025 360.717,439.025 360.754,404.826 340.649,399.76 					"/>
				</g>
				<g>
					<polygon style="fill:#FFA083;" points="360.748,404.825 360.735,416.3 342.015,416.3 340.65,399.763 					"/>
				</g>
			</g>
			<g>
				<path style="fill:#DB6189;" d="M366.856,458.641h-31.659l3.895-28.335c0.447-3.226,2.022-5.607,3.945-6.339
					c0.67-0.261,1.389-0.323,2.109-0.136l0.149,0.037c4.255,2.915,7.754,3.064,11.599-0.025c0.236-0.186,0.583-0.099,0.868-0.099
					c0.434,0,0.856,0.074,1.265,0.236c1.923,0.732,3.498,3.114,3.933,6.339L366.856,458.641z"/>
				<path style="fill:#FFB3CC;" d="M360.392,428.483v25.965c0,1.513-0.422,2.953-1.166,4.193h-16.4
					c-0.744-1.24-1.166-2.68-1.166-4.193v-25.965c0-1.65,0.496-3.213,1.377-4.516c0.67-0.261,1.389-0.323,2.109-0.136l0.149,0.037
					c4.255,2.915,7.754,3.064,11.599-0.025c0.298-0.074,0.583-0.099,0.868-0.099c0.434,0,0.856,0.074,1.265,0.236
					C359.896,425.282,360.392,426.833,360.392,428.483z"/>
				<g>
					<path style="fill:none;stroke:#962A51;stroke-width:0.9477;stroke-miterlimit:10;" d="M356.283,437.02
						c-1.521-0.631-3.141-0.983-4.822-0.983h0c-2.006,0-3.924,0.501-5.691,1.378"/>
					<path style="fill:none;stroke:#962A51;stroke-width:0.9477;stroke-miterlimit:10;" d="M356.283,433.071
						c-1.521-0.631-3.141-0.983-4.822-0.983h0c-2.006,0-3.924,0.501-5.691,1.379"/>
					<path style="fill:none;stroke:#962A51;stroke-width:0.9477;stroke-miterlimit:10;" d="M356.283,429.48
						c-1.521-0.631-3.141-0.983-4.822-0.983h0c-2.006,0-3.924,0.501-5.691,1.378"/>
				</g>
				<g>
					<g>
						<g>
							<path style="fill:none;stroke:#FFFFFF;stroke-width:0.6203;stroke-miterlimit:10;" d="M355.109,424.849
								c1.469-0.636,3.051-1.455,4.465-2.507c1.414-1.052,2.612-2.367,2.683-3.167c0.084-0.945-1.466-0.885-3.217-0.087
								c-1.751,0.798-3.577,2.161-4.978,3.494c-0.778,0.74-3.289,3.202-3.096,3.655
								C351.159,426.688,354.176,425.252,355.109,424.849z"/>
						</g>
					</g>
					<g>
						<g>
							<path style="fill:none;stroke:#FFFFFF;stroke-width:0.6203;stroke-miterlimit:10;" d="M346.943,424.849
								c-1.469-0.636-3.051-1.455-4.465-2.507c-1.414-1.052-2.612-2.367-2.683-3.167c-0.084-0.945,1.466-0.885,3.217-0.087
								c1.751,0.798,3.577,2.161,4.978,3.494c0.778,0.74,3.289,3.202,3.096,3.655C350.893,426.688,347.876,425.252,346.943,424.849z
								"/>
						</g>
					</g>
				</g>
				<g>
					<path style="fill:none;stroke:#962A51;stroke-width:0.9477;stroke-miterlimit:10;" d="M360.68,428.488l0.005,5.09
						c0.006,6.554-1.301,13.044-3.844,19.085l0,0"/>
					<path style="fill:none;stroke:#962A51;stroke-width:0.9477;stroke-miterlimit:10;" d="M341.371,428.488l-0.005,5.09
						c-0.006,6.554,1.301,13.044,3.844,19.085l0,0"/>
				</g>
				<g>
					<path style="fill:#E986A2;" d="M367.637,457.398v1.251h-33.226l0.408-4.843c0.682-3.213,2.265-6.34,4.454-8.889
						c3.014-3.497,7.164-5.895,11.751-5.895c7.932,0,14.556,7.174,16.205,14.784C367.504,455,367.637,456.204,367.637,457.398z"/>
					<line style="fill:#E986A2;" x1="335.097" y1="452.662" x2="366.955" y2="452.662"/>
					<path style="fill:#962A51;" d="M367.637,457.398v1.251h-33.226l0.408-4.843h32.411
						C367.504,455,367.637,456.204,367.637,457.398z"/>
				</g>
			</g>
		</g>
		<g>
			<g>
				<g>
					<polygon style="fill:#E986A2;" points="411.96,439.025 395.149,439.025 395.112,404.826 415.217,399.76 					"/>
				</g>
				<g>
					<polygon style="fill:#FFA083;" points="395.118,404.825 395.13,416.3 413.851,416.3 415.215,399.763 					"/>
				</g>
			</g>
			<g>
				<path style="fill:#DB6189;" d="M389.01,458.641h31.66l-3.896-28.335c-0.446-3.226-2.022-5.607-3.945-6.339
					c-0.67-0.261-1.389-0.323-2.109-0.136l-0.149,0.037c-4.255,2.915-7.754,3.064-11.599-0.025
					c-0.236-0.186-0.583-0.099-0.868-0.099c-0.434,0-0.856,0.074-1.265,0.236c-1.923,0.732-3.499,3.114-3.933,6.339L389.01,458.641z
					"/>
				<path style="fill:#FFB3CC;" d="M395.473,428.483v25.965c0,1.513,0.422,2.953,1.166,4.193h16.401
					c0.744-1.24,1.166-2.68,1.166-4.193v-25.965c0-1.65-0.496-3.213-1.377-4.516c-0.67-0.261-1.389-0.323-2.109-0.136l-0.149,0.037
					c-4.255,2.915-7.754,3.064-11.599-0.025c-0.298-0.074-0.583-0.099-0.868-0.099c-0.434,0-0.856,0.074-1.265,0.236
					C395.97,425.282,395.473,426.833,395.473,428.483z"/>
				<g>
					<path style="fill:none;stroke:#962A51;stroke-width:0.9477;stroke-miterlimit:10;" d="M399.583,437.02
						c1.521-0.631,3.141-0.983,4.822-0.983h0c2.006,0,3.924,0.501,5.691,1.378"/>
					<path style="fill:none;stroke:#962A51;stroke-width:0.9477;stroke-miterlimit:10;" d="M399.583,433.071
						c1.521-0.631,3.141-0.983,4.822-0.983h0c2.006,0,3.924,0.501,5.691,1.379"/>
					<path style="fill:none;stroke:#962A51;stroke-width:0.9477;stroke-miterlimit:10;" d="M399.583,429.48
						c1.521-0.631,3.141-0.983,4.822-0.983h0c2.006,0,3.924,0.501,5.691,1.378"/>
				</g>
				<g>
					<g>
						<g>
							<path style="fill:none;stroke:#FFFFFF;stroke-width:0.6203;stroke-miterlimit:10;" d="M400.757,424.849
								c-1.469-0.636-3.051-1.455-4.465-2.507c-1.414-1.052-2.612-2.367-2.683-3.167c-0.084-0.945,1.466-0.885,3.217-0.087
								c1.751,0.798,3.577,2.161,4.978,3.494c0.778,0.74,3.289,3.202,3.096,3.655C404.707,426.688,401.69,425.252,400.757,424.849z"
								/>
						</g>
					</g>
					<g>
						<g>
							<path style="fill:none;stroke:#FFFFFF;stroke-width:0.6203;stroke-miterlimit:10;" d="M408.923,424.849
								c1.469-0.636,3.051-1.455,4.465-2.507c1.414-1.052,2.612-2.367,2.683-3.167c0.084-0.945-1.466-0.885-3.217-0.087
								c-1.751,0.798-3.577,2.161-4.978,3.494c-0.778,0.74-3.289,3.202-3.096,3.655C404.973,426.688,407.99,425.252,408.923,424.849
								z"/>
						</g>
					</g>
				</g>
				<g>
					<path style="fill:none;stroke:#962A51;stroke-width:0.9477;stroke-miterlimit:10;" d="M395.185,428.488l-0.005,5.09
						c-0.006,6.554,1.301,13.044,3.844,19.085l0,0"/>
					<path style="fill:none;stroke:#962A51;stroke-width:0.9477;stroke-miterlimit:10;" d="M414.494,428.488l0.005,5.09
						c0.006,6.554-1.301,13.044-3.844,19.085l0,0"/>
				</g>
				<g>
					<path style="fill:#E986A2;" d="M388.229,457.398v1.251h33.226l-0.408-4.843c-0.682-3.213-2.265-6.34-4.454-8.889
						c-3.014-3.497-7.164-5.895-11.751-5.895c-7.932,0-14.556,7.174-16.205,14.784C388.361,455,388.229,456.204,388.229,457.398z"/>
					<line style="fill:#E986A2;" x1="420.769" y1="452.662" x2="388.911" y2="452.662"/>
					<path style="fill:#962A51;" d="M388.229,457.398v1.251h33.226l-0.408-4.843h-32.411
						C388.361,455,388.229,456.204,388.229,457.398z"/>
				</g>
			</g>
		</g>
		<g>
			<path style="fill:#223843;" d="M334.207,411.63h34.343l5.948-135.391c0-12.44-10.085-22.525-22.525-22.525l0,0
				c-12.44,0-22.525,10.085-22.525,22.525L334.207,411.63z"/>
			<rect x="331.615" y="399.76" style="fill:#295566;" width="38.821" height="12.006"/>
		</g>
		<g>
			<path style="fill:#223843;" d="M423.115,411.63h-34.343l-5.948-135.391c0-12.44,10.085-22.525,22.525-22.525l0,0
				c12.44,0,22.525,10.085,22.525,22.525L423.115,411.63z"/>
			<rect x="385.954" y="399.76" style="fill:#295566;" width="38.821" height="12.006"/>
		</g>
		<g>
			<path style="fill:#E986A2;" d="M432.132,152.885l-19.58,91.68h-72.44l-19.74-91.68c0-0.24,0.01-0.48,0.02-0.72
				c0.29-4.74,3.67-8.74,8.2-10.18l6.06-1.9v-0.04l4.4-1.57l24.3-5.42l0.71-0.16h24.38l0.26,0.06l24.75,5.52l4.41,1.57v0.04
				l6.05,1.9c4.54,1.44,7.91,5.44,8.2,10.18C432.132,152.405,432.132,152.645,432.132,152.885z"/>
			<polygon style="fill:#FFB9A4;" points="388.701,132.928 375.982,156.657 363.352,132.984 364.061,132.895 388.441,132.895 			"/>
			<g>
				<line style="fill:none;stroke:#DB6189;stroke-miterlimit:10;" x1="375.794" y1="156.657" x2="376.064" y2="244.565"/>
				<g>
					<line style="fill:none;stroke:#DB6189;stroke-miterlimit:10;" x1="372.195" y1="199.499" x2="379.663" y2="199.499"/>
					<line style="fill:none;stroke:#DB6189;stroke-miterlimit:10;" x1="372.195" y1="179.058" x2="379.663" y2="179.058"/>
					<line style="fill:none;stroke:#DB6189;stroke-miterlimit:10;" x1="372.195" y1="219.941" x2="379.663" y2="219.941"/>
				</g>
			</g>
		</g>
		<g>
			<g>
				<path style="fill:#DB6189;" d="M340.049,137.471l-4.72,80.906c0,8.123-6.585,14.707-14.707,14.707h0
					c-8.985,0-15.87-7.986-14.547-16.873l8.508-59.042c0-0.827,0.205-1.836,0.551-2.95c2.811-9.056,10.974-15.41,20.412-16.316
					L340.049,137.471z"/>
			</g>
			<g>
				<g>
					<g>
						<path style="fill:#FFB9A4;" d="M301.18,153.494l-2.488,3.812l-10.929-7.13c-1.053-0.687-1.349-2.097-0.663-3.15l0,0
							c0.687-1.053,2.097-1.349,3.15-0.662L301.18,153.494z"/>
						<g>
							<path style="fill:#FFB9A4;" d="M295.989,151.13c0.92-0.919,2.043-1.603,3.172-2.256c1.742-1.009,3.52-1.964,5.331-2.854
								l14.108,12.009c1.525,1.295,2.446,3.159,2.655,5.219c0.134,1.273-0.014,2.615-0.415,3.969l9.35,50.923
								c1.156,6.051-2.814,11.895-8.863,13.045c-6.051,1.156-11.895-2.814-13.05-8.865l-0.311-57.154l-12.989-10.671"/>
							<g>
								<path style="fill:#FFB9A4;" d="M298.569,155.12L298.569,155.12c0.849-0.77,0.914-2.082,0.144-2.932l-12.722-14.038
									c-0.77-0.849-2.082-0.914-2.932-0.144l0,0c-0.849,0.77-0.914,2.082-0.144,2.932l12.722,14.038
									C296.407,155.825,297.719,155.889,298.569,155.12z"/>
								
									<path style="fill:none;stroke:#FF8D73;stroke-width:0.4056;stroke-linecap:round;stroke-linejoin:round;stroke-miterlimit:10;" d="
									M296.383,149.714l-9.87-10.988c-1.058-1.167-2.604-1.489-3.453-0.719l0,0c-0.849,0.77-0.68,2.34,0.377,3.507l10.693,11.799
									c1.004,1.108,2.082,2.147,3.227,3.109l4.962,4.172l5.647,4.571l0.189,46.431"/>
							</g>
							<g>
								<path style="fill:#FFB9A4;" d="M297.565,150.723L297.565,150.723c0.878-0.737,0.993-2.046,0.257-2.924l-12.173-14.516
									c-0.736-0.878-2.046-0.993-2.924-0.257l0,0c-0.878,0.736-0.993,2.046-0.257,2.924l12.173,14.516
									C295.378,151.345,296.687,151.46,297.565,150.723z"/>
								
									<path style="fill:none;stroke:#FF8D73;stroke-width:0.4056;stroke-linecap:round;stroke-linejoin:round;stroke-miterlimit:10;" d="
									M297.323,147.205l-11.176-13.326c-1.012-1.207-2.544-1.588-3.423-0.852l0,0c-0.878,0.736-0.77,2.312,0.242,3.519
									l11.176,13.326"/>
							</g>
							<g>
								<path style="fill:#FFB9A4;" d="M300.724,150.019L300.724,150.019c0.878-0.737,0.993-2.046,0.257-2.924l-11.593-13.824
									c-0.737-0.878-2.046-0.993-2.924-0.257l0,0c-0.878,0.737-0.993,2.046-0.257,2.924l11.593,13.824
									C298.537,150.64,299.846,150.755,300.724,150.019z"/>
								
									<path style="fill:none;stroke:#FF8D73;stroke-width:0.4056;stroke-linecap:round;stroke-linejoin:round;stroke-miterlimit:10;" d="
									M300.553,146.585l-10.739-12.805c-0.972-1.16-2.473-1.503-3.351-0.766l0,0c-0.878,0.737-0.802,2.274,0.171,3.433
									l9.273,10.731"/>
							</g>
							<g>
								<path style="fill:#FFB9A4;" d="M304.375,148.979L304.375,148.979c0.878-0.736,0.993-2.046,0.257-2.924l-8.133-9.698
									c-0.737-0.878-2.046-0.993-2.924-0.257l0,0c-0.878,0.737-0.993,2.046-0.257,2.924l8.133,9.698
									C302.188,149.6,303.497,149.715,304.375,148.979z"/>
								
									<path style="fill:none;stroke:#FF8D73;stroke-width:0.4056;stroke-linecap:round;stroke-linejoin:round;stroke-miterlimit:10;" d="
									M299.664,146.527l-6.346-7.503c-0.737-0.878-0.622-2.187,0.257-2.924l0,0c0.878-0.736,2.187-0.622,2.924,0.257l9.554,11.382
									"/>
							</g>
							
								<path style="fill:none;stroke:#FF8D73;stroke-width:0.4056;stroke-linecap:round;stroke-linejoin:round;stroke-miterlimit:10;" d="
								M307.972,165.543c0.617-1.888,2.546-3.264,4.532-3.231"/>
						</g>
					</g>
					<path style="fill:none;stroke:#FF8D8D;stroke-width:0.3871;stroke-miterlimit:10;" d="M306.053,147.738l12.631,10.1
						c1.525,1.295,2.446,3.159,2.655,5.219c0.134,1.273-0.014,2.615-0.415,3.969l9.35,50.922"/>
				</g>
				<path style="fill:#E986A2;" d="M319.057,234.132L319.057,234.132c-6.833,0.468-12.751-4.692-13.219-11.525l-3.455-52.375
					l24.743-1.694l3.455,52.375C331.05,227.746,325.89,233.664,319.057,234.132z"/>
			</g>
		</g>
		<g>
			<g>
				<path style="fill:#DB6189;" d="M410.932,137.471l4.72,80.906c0,8.123,6.585,14.707,14.707,14.707h0
					c8.985,0,15.87-7.986,14.547-16.873l-8.508-59.042c0-0.827-0.205-1.836-0.551-2.95c-2.811-9.056-10.974-15.41-20.412-16.316
					L410.932,137.471z"/>
			</g>
			<g>
				<g>
					<g>
						<path style="fill:#FFB9A4;" d="M449.802,153.494l2.488,3.812l10.929-7.13c1.053-0.687,1.349-2.097,0.663-3.15l0,0
							c-0.687-1.053-2.097-1.349-3.15-0.662L449.802,153.494z"/>
						<g>
							<path style="fill:#FFB9A4;" d="M454.992,151.13c-0.92-0.919-2.043-1.603-3.171-2.256c-1.742-1.009-3.52-1.964-5.331-2.854
								l-14.108,12.009c-1.525,1.295-2.446,3.159-2.655,5.219c-0.134,1.273,0.014,2.615,0.415,3.969l-9.35,50.923
								c-1.156,6.051,2.814,11.895,8.863,13.045c6.051,1.156,11.895-2.814,13.05-8.865l0.311-57.154l12.989-10.671"/>
							<g>
								<path style="fill:#FFB9A4;" d="M452.413,155.12L452.413,155.12c-0.849-0.77-0.914-2.082-0.144-2.932l12.722-14.038
									c0.77-0.849,2.082-0.914,2.932-0.144l0,0c0.849,0.77,0.914,2.082,0.144,2.932l-12.722,14.038
									C454.575,155.825,453.262,155.889,452.413,155.12z"/>
								
									<path style="fill:none;stroke:#FF8D73;stroke-width:0.4056;stroke-linecap:round;stroke-linejoin:round;stroke-miterlimit:10;" d="
									M454.599,149.714l9.87-10.988c1.058-1.167,2.604-1.489,3.453-0.719l0,0c0.849,0.77,0.68,2.34-0.377,3.507l-10.693,11.799
									c-1.004,1.108-2.082,2.147-3.227,3.109l-4.962,4.172l-5.647,4.571l-0.189,46.431"/>
							</g>
							<g>
								<path style="fill:#FFB9A4;" d="M453.416,150.723L453.416,150.723c-0.878-0.737-0.993-2.046-0.257-2.924l12.173-14.516
									c0.737-0.878,2.046-0.993,2.924-0.257l0,0c0.878,0.736,0.993,2.046,0.257,2.924l-12.173,14.516
									C455.603,151.345,454.294,151.46,453.416,150.723z"/>
								
									<path style="fill:none;stroke:#FF8D73;stroke-width:0.4056;stroke-linecap:round;stroke-linejoin:round;stroke-miterlimit:10;" d="
									M453.658,147.205l11.176-13.326c1.012-1.207,2.544-1.588,3.423-0.852l0,0c0.878,0.736,0.77,2.312-0.242,3.519
									l-11.176,13.326"/>
							</g>
							<g>
								<path style="fill:#FFB9A4;" d="M450.257,150.019L450.257,150.019c-0.878-0.737-0.993-2.046-0.257-2.924l11.593-13.824
									c0.737-0.878,2.046-0.993,2.924-0.257l0,0c0.878,0.737,0.993,2.046,0.257,2.924l-11.593,13.824
									C452.445,150.64,451.135,150.755,450.257,150.019z"/>
								
									<path style="fill:none;stroke:#FF8D73;stroke-width:0.4056;stroke-linecap:round;stroke-linejoin:round;stroke-miterlimit:10;" d="
									M450.428,146.585l10.739-12.805c0.973-1.16,2.473-1.503,3.351-0.766l0,0c0.878,0.737,0.802,2.274-0.171,3.433l-9.273,10.731
									"/>
							</g>
							<g>
								<path style="fill:#FFB9A4;" d="M446.606,148.979L446.606,148.979c-0.878-0.736-0.993-2.046-0.257-2.924l8.133-9.698
									c0.737-0.878,2.046-0.993,2.924-0.257l0,0c0.878,0.737,0.993,2.046,0.257,2.924l-8.133,9.698
									C448.793,149.6,447.484,149.715,446.606,148.979z"/>
								
									<path style="fill:none;stroke:#FF8D73;stroke-width:0.4056;stroke-linecap:round;stroke-linejoin:round;stroke-miterlimit:10;" d="
									M451.318,146.527l6.346-7.503c0.737-0.878,0.622-2.187-0.257-2.924l0,0c-0.878-0.736-2.187-0.622-2.924,0.257l-9.554,11.382
									"/>
							</g>
							
								<path style="fill:none;stroke:#FF8D73;stroke-width:0.4056;stroke-linecap:round;stroke-linejoin:round;stroke-miterlimit:10;" d="
								M443.009,165.543c-0.617-1.888-2.546-3.264-4.532-3.231"/>
						</g>
					</g>
					<path style="fill:none;stroke:#FF8D8D;stroke-width:0.3871;stroke-miterlimit:10;" d="M444.928,147.738l-12.631,10.1
						c-1.525,1.295-2.446,3.159-2.655,5.219c-0.134,1.273,0.014,2.615,0.415,3.969l-9.35,50.922"/>
				</g>
				<path style="fill:#E986A2;" d="M431.924,234.132L431.924,234.132c6.833,0.468,12.751-4.692,13.218-11.525l3.455-52.375
					l-24.743-1.694l-3.455,52.375C419.931,227.746,425.091,233.664,431.924,234.132z"/>
			</g>
		</g>
	</g>
	<g>
		<g>
			<g>
				<g>
					<polygon style="fill:#DBA19C;" points="558.8,449.785 553.73,449.785 547.55,395.855 536.77,301.775 530.95,251.015 
						541.93,251.015 546.24,301.775 554.22,395.855 					"/>
					<polygon style="fill:#995F5F;" points="558.8,449.785 553.73,449.785 547.55,395.855 554.22,395.855 					"/>
					<path style="fill:#C17F7C;" d="M533.02,269.069L533.02,269.069l-2.07-18.054h10.98l0.489,5.756
						C542.92,262.679,538.852,268.001,533.02,269.069z"/>
				</g>
			</g>
			<g>
				<g>
					<polygon style="fill:#DBA19C;" points="207.95,449.785 213.02,449.785 219.2,395.855 229.98,301.775 235.8,251.015 
						224.82,251.015 220.51,301.775 212.53,395.855 					"/>
					<polygon style="fill:#995F5F;" points="207.95,449.785 213.02,449.785 219.2,395.855 212.53,395.855 					"/>
					<path style="fill:#C17F7C;" d="M223.122,271.016L223.122,271.016c6.302-1.157,11.107-6.297,11.837-12.663l0.841-7.338h-10.98
						L223.122,271.016z"/>
				</g>
			</g>
		</g>
		<g>
			<rect x="181.697" y="238.442" style="fill:#DBA19C;" width="386.605" height="25.149"/>
			<polygon style="fill:#C17F7C;" points="568.302,241.585 181.697,244.728 181.697,238.442 568.302,238.442 			"/>
			<g>
				<rect x="174.612" y="227.536" style="fill:#8C5353;" width="400.776" height="12.575"/>
				<path style="fill:#995F5F;" d="M512.446,240.111H174.612v-12.575h350.409l0,0C525.021,234.481,519.391,240.111,512.446,240.111z
					"/>
			</g>
		</g>
	</g>
	<g>
		<g>
			<path style="fill:#F4E7E6;" d="M532.155,193.417v13.756c0,11.25-9.12,20.362-20.362,20.362c-5.97,0-11.349-2.569-15.072-6.668
				c-3.285-3.616-5.289-8.413-5.289-13.694v-13.756H532.155z"/>
			<path style="fill:#FFFFFF;" d="M523.142,193.417v8.001c0,11.241-9.12,20.362-20.362,20.362c-2.112,0-4.144-0.322-6.059-0.913
				c-3.285-3.616-5.289-8.413-5.289-13.694v-13.756H523.142z"/>
		</g>
		<g>
			
				<line style="fill:none;stroke:#DBA19C;stroke-width:0.895;stroke-miterlimit:10;" x1="532.153" y1="199.828" x2="491.433" y2="199.828"/>
			
				<line style="fill:none;stroke:#DBA19C;stroke-width:0.895;stroke-miterlimit:10;" x1="532.153" y1="196.999" x2="491.433" y2="196.999"/>
		</g>
	</g>
	<g>
		<polygon style="fill:#E2E2E2;" points="425.203,228.223 325.778,228.223 312.794,155.209 438.187,155.209 		"/>
		<polygon style="fill:#EFEFEF;" points="425.203,228.223 312.794,155.209 438.187,155.209 		"/>
		<path style="fill:#FFFFFF;" d="M365.886,194.431c0-5.232,4.242-9.474,9.474-9.474c5.232,0,9.474,4.242,9.474,9.474
			c0,5.232-4.241,9.474-9.474,9.474C370.127,203.904,365.886,199.663,365.886,194.431z"/>
	</g>
	<g>
		<g>
			<polyline style="fill:none;stroke:#615072;stroke-width:1.4657;stroke-miterlimit:10;" points="240.591,213.306 231.521,155.39 
				249.868,131.284 266.663,146.271 			"/>
			<g>
				<path style="fill:#615072;" d="M234.224,155.676c0,1.495-1.209,2.703-2.704,2.703c-1.03,0-1.923-0.571-2.377-1.418
					c-0.005-0.005-0.005,0-0.005,0c-0.204-0.383-0.321-0.821-0.321-1.285c0-1.495,1.209-2.704,2.704-2.704
					c0.372,0,0.729,0.077,1.056,0.219C233.546,153.599,234.224,154.558,234.224,155.676z"/>
				<path style="fill:#7E6C8C;" d="M232.898,154.467c0,1.495-1.214,2.704-2.704,2.704c-0.372,0-0.73-0.077-1.051-0.209
					c-0.005-0.005-0.005,0-0.005,0c-0.204-0.383-0.321-0.821-0.321-1.285c0-1.495,1.209-2.704,2.704-2.704
					c0.372,0,0.729,0.077,1.056,0.219C232.781,153.574,232.898,154.007,232.898,154.467z"/>
			</g>
			<g>
				<path style="fill:#615072;" d="M252.729,132.045c0,1.495-1.209,2.704-2.704,2.704c-1.03,0-1.923-0.571-2.377-1.418
					c-0.005-0.005-0.005,0-0.005,0c-0.204-0.383-0.321-0.821-0.321-1.285c0-1.495,1.209-2.704,2.704-2.704
					c0.372,0,0.73,0.076,1.056,0.219C252.051,129.969,252.729,130.928,252.729,132.045z"/>
				<path style="fill:#7E6C8C;" d="M251.403,130.836c0,1.495-1.214,2.704-2.704,2.704c-0.372,0-0.729-0.077-1.051-0.209
					c-0.005-0.005-0.005,0-0.005,0c-0.204-0.383-0.321-0.821-0.321-1.285c0-1.495,1.209-2.704,2.704-2.704
					c0.372,0,0.73,0.076,1.056,0.219C251.286,129.943,251.403,130.377,251.403,130.836z"/>
			</g>
		</g>
		<g>
			<path style="fill:#A399AD;" d="M252.536,217.577h-23.89l0,0c0-4.717,3.824-8.541,8.541-8.541h6.808
				C248.712,209.036,252.536,212.859,252.536,217.577L252.536,217.577z"/>
			<g>
				<rect x="226.303" y="217.32" style="fill:#615072;" width="28.575" height="10.216"/>
				<path style="fill:#7E6C8C;" d="M240.591,227.536h-14.288V217.32h23.565v0.939C249.868,223.382,245.715,227.536,240.591,227.536z
					"/>
			</g>
		</g>
		<g>
			
				<rect x="261.834" y="141.164" transform="matrix(0.6593 -0.7519 0.7519 0.6593 -18.5954 247.7775)" style="fill:#352847;" width="4.581" height="6.49"/>
			<path style="fill:#352847;" d="M288.042,143.458l-15.902,18.123l-5.841,6.661c-2.858-2.506-4.316-6.017-4.316-9.541
				c0-2.961,1.033-5.943,3.144-8.347l5.02-5.723c0.638-0.726,1.341-1.363,2.089-1.913
				C276.925,139.317,283.506,139.479,288.042,143.458z"/>
			<polygon style="fill:#453756;" points="272.992,145.862 266.722,153.011 261.171,147.168 266.474,141.121 			"/>
			<path style="fill:#453756;" d="M273.957,152.032c0,3.496-0.659,6.764-1.817,9.549l-5.841,6.661
				c-2.858-2.506-4.316-6.017-4.316-9.541c0-2.961,1.033-5.943,3.144-8.347l5.02-5.723c0.638-0.726,1.341-1.363,2.089-1.913
				C273.334,145.451,273.957,148.632,273.957,152.032z"/>
			<g>
				<polygon style="fill:#7E6C8C;" points="290.013,143.113 272.191,163.435 266.218,170.243 263.28,167.67 274.389,155.007 
					287.074,140.534 				"/>
				<path style="fill:#A68FBC;" d="M274.389,155.007c-0.007,0.059-0.007,0.11-0.015,0.169c-0.278,3.012-1.048,5.811-2.184,8.259
					l-5.973,6.808l-2.939-2.572L274.389,155.007z"/>
			</g>
		</g>
	</g>
</g>
</svg>
